M48
;GenerationSoftware,Autodesk,EAGLE,9.2.0*%
;CreationDate,2019-12-15T19:12:34Z*%
FMAT,2
ICI,OFF
METRIC,TZ,000.000
T3C0.305
T2C0.500
T1C2.200
%
G90
M71
T1
X29000Y15250
X2500Y2500
T2
X19673Y8750
X21750Y1840
X29750Y9250
X29750Y8250
X29750Y7250
X29750Y6250
X29750Y5250
X29750Y4250
X29750Y3250
X9000Y9750
X11000Y4500
X11000Y3000
X11000Y1500
X6500Y6750
X6500Y8250
X6500Y9750
X6500Y5250
X19673Y6750
X6500Y2250
X19673Y4750
X19673Y2750
X13172Y8750
X13172Y6750
X13172Y4750
X6500Y3750
X13172Y2750
T3
X18645Y12700
X11180Y11930
X18395Y11930
X11362Y12700
X10478Y14250
X23312Y11160
X10997Y11160
X24035Y10458
X10748Y10458
X18395Y14762
X10478Y15520
M30