G04 EAGLE Gerber RS-274X export*
G75*
%MOMM*%
%FSLAX34Y34*%
%LPD*%
%INEAGLE Copper Layer 2*%
%IPPOS*%
%AMOC8*
5,1,8,0,0,1.08239X$1,22.5*%
G01*
%ADD10C,0.703200*%
%ADD11C,0.508000*%
%ADD12C,2.640000*%

G36*
X202526Y3306D02*
X202526Y3306D01*
X202552Y3304D01*
X202699Y3326D01*
X202846Y3343D01*
X202871Y3351D01*
X202897Y3355D01*
X203035Y3410D01*
X203174Y3460D01*
X203196Y3474D01*
X203221Y3484D01*
X203342Y3569D01*
X203467Y3649D01*
X203485Y3668D01*
X203507Y3683D01*
X203606Y3793D01*
X203709Y3900D01*
X203723Y3922D01*
X203740Y3942D01*
X203812Y4072D01*
X203888Y4199D01*
X203896Y4224D01*
X203909Y4247D01*
X203949Y4390D01*
X203994Y4531D01*
X203996Y4557D01*
X204004Y4582D01*
X204023Y4826D01*
X204023Y22555D01*
X204012Y22655D01*
X204010Y22755D01*
X203992Y22828D01*
X203983Y22902D01*
X203950Y22996D01*
X203925Y23093D01*
X203891Y23160D01*
X203866Y23230D01*
X203811Y23314D01*
X203765Y23403D01*
X203717Y23460D01*
X203677Y23522D01*
X203605Y23592D01*
X203540Y23669D01*
X203480Y23713D01*
X203426Y23765D01*
X203340Y23816D01*
X203259Y23876D01*
X203191Y23905D01*
X203127Y23943D01*
X203031Y23974D01*
X202939Y24014D01*
X202866Y24027D01*
X202795Y24050D01*
X202695Y24058D01*
X202596Y24076D01*
X202522Y24072D01*
X202448Y24078D01*
X202348Y24063D01*
X202248Y24058D01*
X202177Y24037D01*
X202103Y24026D01*
X202010Y23989D01*
X201913Y23961D01*
X201848Y23925D01*
X201779Y23897D01*
X201697Y23840D01*
X201609Y23791D01*
X201533Y23726D01*
X201493Y23698D01*
X201469Y23672D01*
X201423Y23632D01*
X200586Y22795D01*
X199594Y22133D01*
X198492Y21676D01*
X198248Y21628D01*
X198248Y27500D01*
X198248Y33372D01*
X198492Y33324D01*
X199594Y32867D01*
X200586Y32205D01*
X201423Y31368D01*
X201501Y31305D01*
X201574Y31235D01*
X201638Y31197D01*
X201696Y31151D01*
X201787Y31108D01*
X201873Y31057D01*
X201944Y31034D01*
X202011Y31002D01*
X202109Y30981D01*
X202205Y30950D01*
X202279Y30944D01*
X202352Y30929D01*
X202452Y30930D01*
X202552Y30922D01*
X202626Y30933D01*
X202700Y30935D01*
X202797Y30959D01*
X202897Y30974D01*
X202966Y31002D01*
X203038Y31020D01*
X203128Y31066D01*
X203221Y31103D01*
X203282Y31145D01*
X203348Y31179D01*
X203425Y31244D01*
X203507Y31302D01*
X203557Y31357D01*
X203613Y31405D01*
X203673Y31486D01*
X203740Y31560D01*
X203776Y31626D01*
X203821Y31685D01*
X203860Y31778D01*
X203909Y31866D01*
X203929Y31937D01*
X203959Y32005D01*
X203976Y32104D01*
X204004Y32201D01*
X204012Y32301D01*
X204020Y32348D01*
X204018Y32384D01*
X204023Y32445D01*
X204023Y42555D01*
X204012Y42655D01*
X204010Y42755D01*
X203992Y42828D01*
X203983Y42902D01*
X203950Y42996D01*
X203925Y43093D01*
X203891Y43160D01*
X203866Y43230D01*
X203811Y43314D01*
X203765Y43403D01*
X203717Y43460D01*
X203677Y43522D01*
X203605Y43592D01*
X203540Y43669D01*
X203480Y43713D01*
X203426Y43765D01*
X203340Y43816D01*
X203259Y43876D01*
X203191Y43905D01*
X203127Y43943D01*
X203031Y43974D01*
X202939Y44014D01*
X202866Y44027D01*
X202795Y44050D01*
X202695Y44058D01*
X202596Y44076D01*
X202522Y44072D01*
X202448Y44078D01*
X202348Y44063D01*
X202248Y44058D01*
X202177Y44037D01*
X202103Y44026D01*
X202010Y43989D01*
X201913Y43961D01*
X201848Y43925D01*
X201779Y43897D01*
X201697Y43840D01*
X201609Y43791D01*
X201533Y43726D01*
X201493Y43698D01*
X201469Y43672D01*
X201423Y43632D01*
X200586Y42795D01*
X199594Y42133D01*
X198492Y41676D01*
X198248Y41628D01*
X198248Y47500D01*
X198248Y53372D01*
X198492Y53324D01*
X199594Y52867D01*
X200586Y52205D01*
X201423Y51368D01*
X201501Y51305D01*
X201574Y51235D01*
X201638Y51197D01*
X201696Y51151D01*
X201787Y51108D01*
X201873Y51057D01*
X201944Y51034D01*
X202011Y51002D01*
X202109Y50981D01*
X202205Y50950D01*
X202279Y50944D01*
X202352Y50929D01*
X202452Y50930D01*
X202552Y50922D01*
X202626Y50933D01*
X202700Y50935D01*
X202797Y50959D01*
X202897Y50974D01*
X202966Y51002D01*
X203038Y51020D01*
X203128Y51066D01*
X203221Y51103D01*
X203282Y51145D01*
X203348Y51179D01*
X203425Y51244D01*
X203507Y51302D01*
X203557Y51357D01*
X203613Y51405D01*
X203673Y51486D01*
X203740Y51560D01*
X203776Y51626D01*
X203821Y51685D01*
X203860Y51778D01*
X203909Y51866D01*
X203929Y51937D01*
X203959Y52005D01*
X203976Y52104D01*
X204004Y52201D01*
X204012Y52301D01*
X204020Y52348D01*
X204018Y52384D01*
X204023Y52445D01*
X204023Y62555D01*
X204012Y62655D01*
X204010Y62755D01*
X203992Y62828D01*
X203983Y62902D01*
X203950Y62996D01*
X203925Y63093D01*
X203891Y63160D01*
X203866Y63230D01*
X203811Y63314D01*
X203765Y63403D01*
X203717Y63460D01*
X203677Y63522D01*
X203605Y63592D01*
X203540Y63669D01*
X203480Y63713D01*
X203426Y63765D01*
X203340Y63816D01*
X203259Y63876D01*
X203191Y63905D01*
X203127Y63943D01*
X203031Y63974D01*
X202939Y64014D01*
X202866Y64027D01*
X202795Y64050D01*
X202695Y64058D01*
X202596Y64076D01*
X202522Y64072D01*
X202448Y64078D01*
X202348Y64063D01*
X202248Y64058D01*
X202177Y64037D01*
X202103Y64026D01*
X202010Y63989D01*
X201913Y63961D01*
X201848Y63925D01*
X201779Y63897D01*
X201697Y63840D01*
X201609Y63791D01*
X201533Y63726D01*
X201493Y63698D01*
X201469Y63672D01*
X201423Y63632D01*
X200586Y62795D01*
X199594Y62133D01*
X198492Y61676D01*
X198248Y61628D01*
X198248Y67500D01*
X198248Y73372D01*
X198492Y73324D01*
X199594Y72867D01*
X200586Y72205D01*
X201423Y71368D01*
X201501Y71305D01*
X201574Y71235D01*
X201638Y71197D01*
X201696Y71151D01*
X201787Y71108D01*
X201873Y71057D01*
X201944Y71034D01*
X202011Y71002D01*
X202109Y70981D01*
X202205Y70950D01*
X202279Y70944D01*
X202352Y70929D01*
X202452Y70930D01*
X202552Y70922D01*
X202626Y70933D01*
X202700Y70935D01*
X202797Y70959D01*
X202897Y70974D01*
X202966Y71002D01*
X203038Y71020D01*
X203128Y71066D01*
X203221Y71103D01*
X203282Y71145D01*
X203348Y71179D01*
X203425Y71244D01*
X203507Y71302D01*
X203557Y71357D01*
X203613Y71405D01*
X203673Y71486D01*
X203740Y71560D01*
X203776Y71626D01*
X203821Y71685D01*
X203860Y71778D01*
X203909Y71866D01*
X203929Y71937D01*
X203959Y72005D01*
X203976Y72104D01*
X204004Y72201D01*
X204012Y72301D01*
X204020Y72348D01*
X204018Y72384D01*
X204023Y72445D01*
X204023Y82555D01*
X204022Y82563D01*
X204022Y82564D01*
X204022Y82567D01*
X204012Y82655D01*
X204010Y82755D01*
X203992Y82828D01*
X203983Y82902D01*
X203950Y82996D01*
X203925Y83093D01*
X203891Y83160D01*
X203866Y83230D01*
X203811Y83314D01*
X203765Y83403D01*
X203717Y83460D01*
X203677Y83522D01*
X203605Y83592D01*
X203540Y83669D01*
X203480Y83713D01*
X203426Y83765D01*
X203340Y83816D01*
X203259Y83876D01*
X203191Y83905D01*
X203127Y83943D01*
X203031Y83974D01*
X202939Y84014D01*
X202866Y84027D01*
X202795Y84050D01*
X202695Y84058D01*
X202596Y84076D01*
X202522Y84072D01*
X202448Y84078D01*
X202348Y84063D01*
X202248Y84058D01*
X202177Y84037D01*
X202103Y84026D01*
X202010Y83989D01*
X201913Y83961D01*
X201848Y83925D01*
X201779Y83897D01*
X201697Y83840D01*
X201609Y83791D01*
X201533Y83726D01*
X201493Y83698D01*
X201469Y83672D01*
X201423Y83632D01*
X200586Y82795D01*
X199594Y82133D01*
X198492Y81676D01*
X198248Y81628D01*
X198248Y87500D01*
X198248Y93372D01*
X198492Y93324D01*
X199594Y92867D01*
X200586Y92205D01*
X201423Y91368D01*
X201501Y91305D01*
X201574Y91235D01*
X201638Y91197D01*
X201696Y91151D01*
X201787Y91108D01*
X201873Y91057D01*
X201944Y91034D01*
X202011Y91002D01*
X202109Y90981D01*
X202205Y90950D01*
X202279Y90944D01*
X202352Y90929D01*
X202452Y90930D01*
X202552Y90922D01*
X202626Y90933D01*
X202700Y90935D01*
X202797Y90959D01*
X202897Y90974D01*
X202966Y91002D01*
X203038Y91020D01*
X203128Y91066D01*
X203221Y91103D01*
X203282Y91145D01*
X203348Y91179D01*
X203425Y91244D01*
X203507Y91302D01*
X203557Y91357D01*
X203613Y91405D01*
X203673Y91486D01*
X203740Y91560D01*
X203776Y91626D01*
X203821Y91685D01*
X203860Y91778D01*
X203909Y91866D01*
X203929Y91937D01*
X203959Y92005D01*
X203976Y92104D01*
X204004Y92201D01*
X204012Y92301D01*
X204020Y92348D01*
X204018Y92384D01*
X204023Y92445D01*
X204023Y97500D01*
X204020Y97526D01*
X204022Y97552D01*
X204000Y97699D01*
X203983Y97846D01*
X203975Y97871D01*
X203971Y97897D01*
X203916Y98035D01*
X203866Y98174D01*
X203852Y98196D01*
X203842Y98221D01*
X203757Y98342D01*
X203677Y98467D01*
X203658Y98485D01*
X203643Y98507D01*
X203533Y98606D01*
X203426Y98709D01*
X203404Y98723D01*
X203384Y98740D01*
X203254Y98812D01*
X203127Y98888D01*
X203102Y98896D01*
X203079Y98909D01*
X202936Y98949D01*
X202795Y98994D01*
X202769Y98996D01*
X202744Y99004D01*
X202500Y99023D01*
X177773Y99023D01*
X177773Y132200D01*
X177769Y132239D01*
X177769Y132309D01*
X177474Y136443D01*
X177467Y136480D01*
X177443Y136658D01*
X176562Y140708D01*
X176550Y140743D01*
X176544Y140762D01*
X176540Y140792D01*
X176526Y140827D01*
X176501Y140917D01*
X175052Y144800D01*
X175035Y144833D01*
X174962Y144998D01*
X172975Y148636D01*
X172954Y148666D01*
X172858Y148818D01*
X170374Y152137D01*
X170348Y152164D01*
X170232Y152301D01*
X167301Y155232D01*
X167272Y155255D01*
X167137Y155374D01*
X163818Y157858D01*
X163786Y157877D01*
X163636Y157975D01*
X159998Y159962D01*
X159963Y159976D01*
X159800Y160052D01*
X155917Y161501D01*
X155880Y161509D01*
X155708Y161562D01*
X151658Y162443D01*
X151621Y162446D01*
X151443Y162474D01*
X147309Y162769D01*
X147269Y162768D01*
X147200Y162773D01*
X114300Y162773D01*
X114196Y162761D01*
X114092Y162759D01*
X114024Y162741D01*
X113954Y162733D01*
X113855Y162698D01*
X113754Y162672D01*
X113692Y162640D01*
X113626Y162616D01*
X113538Y162559D01*
X113445Y162511D01*
X113372Y162452D01*
X113333Y162427D01*
X113306Y162399D01*
X113254Y162358D01*
X108345Y157723D01*
X56299Y157723D01*
X56273Y157720D01*
X56247Y157722D01*
X56100Y157700D01*
X55953Y157683D01*
X55928Y157675D01*
X55902Y157671D01*
X55764Y157616D01*
X55625Y157566D01*
X55603Y157552D01*
X55578Y157542D01*
X55457Y157457D01*
X55332Y157377D01*
X55314Y157358D01*
X55292Y157343D01*
X55193Y157233D01*
X55090Y157126D01*
X55076Y157104D01*
X55059Y157084D01*
X54987Y156954D01*
X54911Y156827D01*
X54903Y156802D01*
X54890Y156779D01*
X54850Y156636D01*
X54805Y156495D01*
X54803Y156469D01*
X54795Y156444D01*
X54776Y156200D01*
X54776Y141500D01*
X54779Y141474D01*
X54777Y141448D01*
X54799Y141301D01*
X54816Y141154D01*
X54824Y141129D01*
X54828Y141103D01*
X54883Y140965D01*
X54933Y140826D01*
X54947Y140804D01*
X54957Y140779D01*
X55042Y140658D01*
X55122Y140533D01*
X55141Y140515D01*
X55156Y140493D01*
X55266Y140394D01*
X55373Y140291D01*
X55395Y140277D01*
X55415Y140260D01*
X55545Y140188D01*
X55672Y140112D01*
X55697Y140104D01*
X55720Y140091D01*
X55863Y140051D01*
X56004Y140006D01*
X56030Y140004D01*
X56055Y139996D01*
X56299Y139977D01*
X108306Y139977D01*
X118208Y129788D01*
X118314Y129702D01*
X118416Y129610D01*
X118449Y129592D01*
X118478Y129568D01*
X118601Y129508D01*
X118721Y129441D01*
X118757Y129431D01*
X118790Y129415D01*
X118924Y129384D01*
X119056Y129346D01*
X119102Y129343D01*
X119130Y129336D01*
X119180Y129336D01*
X119300Y129327D01*
X142520Y129327D01*
X144090Y129004D01*
X145600Y128406D01*
X146983Y127554D01*
X148197Y126476D01*
X149206Y125202D01*
X149978Y123773D01*
X150490Y122232D01*
X150727Y120625D01*
X150677Y118868D01*
X150679Y118851D01*
X150677Y118825D01*
X150677Y99023D01*
X127500Y99023D01*
X127474Y99020D01*
X127448Y99022D01*
X127301Y99000D01*
X127154Y98983D01*
X127129Y98975D01*
X127103Y98971D01*
X126965Y98916D01*
X126826Y98866D01*
X126804Y98852D01*
X126779Y98842D01*
X126658Y98757D01*
X126533Y98677D01*
X126515Y98658D01*
X126493Y98643D01*
X126394Y98533D01*
X126291Y98426D01*
X126277Y98404D01*
X126260Y98384D01*
X126188Y98254D01*
X126112Y98127D01*
X126104Y98102D01*
X126091Y98079D01*
X126051Y97936D01*
X126006Y97795D01*
X126004Y97769D01*
X125996Y97744D01*
X125977Y97500D01*
X125977Y93793D01*
X125991Y93669D01*
X125997Y93543D01*
X126011Y93496D01*
X126017Y93447D01*
X126059Y93329D01*
X126094Y93208D01*
X126118Y93165D01*
X126134Y93119D01*
X126202Y93014D01*
X126263Y92904D01*
X126296Y92868D01*
X126323Y92826D01*
X126413Y92739D01*
X126498Y92646D01*
X126538Y92618D01*
X126574Y92584D01*
X126682Y92520D01*
X126785Y92448D01*
X126831Y92430D01*
X126873Y92405D01*
X126992Y92367D01*
X127109Y92321D01*
X127158Y92314D01*
X127205Y92299D01*
X127330Y92289D01*
X127454Y92271D01*
X127503Y92275D01*
X127552Y92271D01*
X127676Y92290D01*
X127801Y92300D01*
X127848Y92315D01*
X127897Y92323D01*
X128014Y92369D01*
X128133Y92408D01*
X128187Y92438D01*
X128221Y92451D01*
X128260Y92479D01*
X128346Y92527D01*
X128856Y92867D01*
X129958Y93324D01*
X130202Y93372D01*
X130202Y87500D01*
X130202Y81628D01*
X129958Y81676D01*
X128856Y82133D01*
X128346Y82473D01*
X128235Y82531D01*
X128127Y82595D01*
X128080Y82610D01*
X128036Y82632D01*
X127914Y82663D01*
X127795Y82701D01*
X127746Y82705D01*
X127698Y82717D01*
X127573Y82719D01*
X127448Y82729D01*
X127399Y82722D01*
X127350Y82723D01*
X127227Y82696D01*
X127103Y82677D01*
X127057Y82659D01*
X127009Y82649D01*
X126896Y82595D01*
X126779Y82549D01*
X126739Y82521D01*
X126694Y82499D01*
X126596Y82421D01*
X126493Y82350D01*
X126460Y82313D01*
X126422Y82282D01*
X126344Y82184D01*
X126260Y82091D01*
X126236Y82048D01*
X126205Y82009D01*
X126152Y81896D01*
X126091Y81786D01*
X126078Y81738D01*
X126057Y81694D01*
X126031Y81571D01*
X125996Y81450D01*
X125991Y81389D01*
X125984Y81353D01*
X125985Y81305D01*
X125977Y81207D01*
X125977Y73793D01*
X125991Y73669D01*
X125997Y73543D01*
X126011Y73496D01*
X126017Y73447D01*
X126059Y73329D01*
X126094Y73208D01*
X126118Y73165D01*
X126134Y73119D01*
X126202Y73014D01*
X126263Y72904D01*
X126296Y72868D01*
X126323Y72826D01*
X126413Y72739D01*
X126498Y72646D01*
X126538Y72618D01*
X126574Y72584D01*
X126682Y72520D01*
X126785Y72448D01*
X126831Y72430D01*
X126873Y72405D01*
X126992Y72367D01*
X127109Y72321D01*
X127158Y72314D01*
X127205Y72299D01*
X127330Y72289D01*
X127454Y72271D01*
X127503Y72275D01*
X127552Y72271D01*
X127676Y72290D01*
X127801Y72300D01*
X127848Y72315D01*
X127897Y72323D01*
X128014Y72369D01*
X128133Y72408D01*
X128187Y72438D01*
X128221Y72451D01*
X128260Y72479D01*
X128346Y72527D01*
X128856Y72867D01*
X129958Y73324D01*
X130202Y73372D01*
X130202Y67500D01*
X130202Y61628D01*
X129958Y61676D01*
X128856Y62133D01*
X128346Y62473D01*
X128235Y62531D01*
X128127Y62595D01*
X128080Y62610D01*
X128036Y62632D01*
X127914Y62663D01*
X127795Y62701D01*
X127746Y62705D01*
X127698Y62717D01*
X127573Y62719D01*
X127448Y62729D01*
X127399Y62722D01*
X127350Y62723D01*
X127227Y62696D01*
X127103Y62677D01*
X127057Y62659D01*
X127009Y62649D01*
X126896Y62595D01*
X126779Y62549D01*
X126739Y62521D01*
X126694Y62499D01*
X126596Y62421D01*
X126493Y62350D01*
X126460Y62313D01*
X126422Y62282D01*
X126344Y62184D01*
X126260Y62091D01*
X126236Y62048D01*
X126205Y62009D01*
X126152Y61896D01*
X126091Y61786D01*
X126078Y61738D01*
X126057Y61694D01*
X126031Y61571D01*
X125996Y61450D01*
X125991Y61389D01*
X125984Y61353D01*
X125985Y61305D01*
X125977Y61207D01*
X125977Y53793D01*
X125991Y53669D01*
X125997Y53543D01*
X126011Y53496D01*
X126017Y53447D01*
X126059Y53329D01*
X126094Y53208D01*
X126118Y53165D01*
X126134Y53119D01*
X126202Y53014D01*
X126263Y52904D01*
X126296Y52868D01*
X126323Y52826D01*
X126413Y52739D01*
X126498Y52646D01*
X126538Y52618D01*
X126574Y52584D01*
X126682Y52520D01*
X126785Y52448D01*
X126831Y52430D01*
X126873Y52405D01*
X126992Y52367D01*
X127109Y52321D01*
X127158Y52314D01*
X127205Y52299D01*
X127330Y52289D01*
X127454Y52271D01*
X127503Y52275D01*
X127552Y52271D01*
X127676Y52290D01*
X127801Y52300D01*
X127848Y52315D01*
X127897Y52323D01*
X128014Y52369D01*
X128133Y52408D01*
X128187Y52438D01*
X128221Y52451D01*
X128260Y52479D01*
X128346Y52527D01*
X128856Y52867D01*
X129958Y53324D01*
X130202Y53372D01*
X130202Y47500D01*
X130202Y41628D01*
X129958Y41676D01*
X128856Y42133D01*
X128346Y42473D01*
X128235Y42531D01*
X128127Y42595D01*
X128080Y42610D01*
X128036Y42632D01*
X127914Y42663D01*
X127795Y42701D01*
X127746Y42705D01*
X127698Y42717D01*
X127573Y42719D01*
X127448Y42729D01*
X127399Y42722D01*
X127350Y42723D01*
X127227Y42696D01*
X127103Y42677D01*
X127057Y42659D01*
X127009Y42649D01*
X126896Y42595D01*
X126779Y42549D01*
X126739Y42521D01*
X126694Y42499D01*
X126596Y42421D01*
X126493Y42350D01*
X126460Y42313D01*
X126422Y42282D01*
X126344Y42184D01*
X126260Y42091D01*
X126236Y42048D01*
X126205Y42009D01*
X126152Y41896D01*
X126091Y41786D01*
X126078Y41738D01*
X126057Y41694D01*
X126031Y41571D01*
X125996Y41450D01*
X125991Y41389D01*
X125984Y41353D01*
X125985Y41305D01*
X125977Y41207D01*
X125977Y33793D01*
X125991Y33669D01*
X125997Y33543D01*
X126011Y33496D01*
X126017Y33447D01*
X126059Y33329D01*
X126094Y33208D01*
X126118Y33165D01*
X126134Y33119D01*
X126202Y33014D01*
X126263Y32904D01*
X126296Y32868D01*
X126323Y32826D01*
X126413Y32739D01*
X126498Y32646D01*
X126538Y32618D01*
X126574Y32584D01*
X126682Y32520D01*
X126785Y32448D01*
X126831Y32430D01*
X126873Y32405D01*
X126992Y32367D01*
X127109Y32321D01*
X127158Y32314D01*
X127205Y32299D01*
X127330Y32289D01*
X127454Y32271D01*
X127503Y32275D01*
X127552Y32271D01*
X127676Y32290D01*
X127801Y32300D01*
X127848Y32315D01*
X127897Y32323D01*
X128014Y32369D01*
X128133Y32408D01*
X128187Y32438D01*
X128221Y32451D01*
X128260Y32479D01*
X128346Y32527D01*
X128856Y32867D01*
X129958Y33324D01*
X130202Y33372D01*
X130202Y29961D01*
X130209Y29895D01*
X130207Y29828D01*
X130229Y29722D01*
X130241Y29615D01*
X130264Y29552D01*
X130277Y29487D01*
X130322Y29389D01*
X130359Y29287D01*
X130395Y29231D01*
X130423Y29170D01*
X130489Y29085D01*
X130548Y28994D01*
X130596Y28948D01*
X130637Y28895D01*
X130721Y28827D01*
X130799Y28752D01*
X130856Y28718D01*
X130908Y28676D01*
X131005Y28629D01*
X131098Y28573D01*
X131161Y28553D01*
X131221Y28524D01*
X131327Y28500D01*
X131430Y28467D01*
X131496Y28462D01*
X131561Y28447D01*
X131669Y28448D01*
X131777Y28439D01*
X131843Y28449D01*
X131910Y28449D01*
X132015Y28475D01*
X132122Y28491D01*
X132184Y28515D01*
X132249Y28531D01*
X132345Y28579D01*
X132446Y28619D01*
X132500Y28657D01*
X132560Y28687D01*
X132643Y28757D01*
X132732Y28818D01*
X132776Y28868D01*
X132828Y28911D01*
X132893Y28997D01*
X132965Y29077D01*
X132997Y29135D01*
X133038Y29189D01*
X133081Y29288D01*
X133134Y29382D01*
X133152Y29446D01*
X133179Y29507D01*
X133218Y29680D01*
X133228Y29718D01*
X133229Y29719D01*
X133229Y29720D01*
X133230Y29733D01*
X133233Y29746D01*
X133233Y29748D01*
X133234Y29786D01*
X133248Y29963D01*
X133248Y33742D01*
X133279Y33763D01*
X133332Y33789D01*
X133422Y33862D01*
X133516Y33927D01*
X133556Y33972D01*
X133603Y34010D01*
X133673Y34101D01*
X133750Y34186D01*
X133779Y34238D01*
X133816Y34285D01*
X133863Y34390D01*
X133919Y34491D01*
X133935Y34548D01*
X133960Y34603D01*
X134007Y34801D01*
X134014Y34826D01*
X134015Y34832D01*
X134017Y34840D01*
X134787Y39850D01*
X134792Y39967D01*
X134805Y40083D01*
X134798Y40140D01*
X134800Y40198D01*
X134778Y40313D01*
X134765Y40429D01*
X134745Y40483D01*
X134734Y40540D01*
X134686Y40647D01*
X134647Y40757D01*
X134615Y40806D01*
X134592Y40858D01*
X134521Y40952D01*
X134457Y41050D01*
X134416Y41090D01*
X134381Y41136D01*
X134291Y41211D01*
X134206Y41292D01*
X134157Y41321D01*
X134113Y41358D01*
X134007Y41410D01*
X133907Y41470D01*
X133852Y41488D01*
X133801Y41513D01*
X133687Y41540D01*
X133575Y41576D01*
X133518Y41580D01*
X133462Y41594D01*
X133344Y41594D01*
X133248Y41602D01*
X133248Y47500D01*
X133248Y53372D01*
X133492Y53324D01*
X133943Y53137D01*
X134088Y53096D01*
X134231Y53050D01*
X134255Y53048D01*
X134278Y53041D01*
X134428Y53034D01*
X134578Y53022D01*
X134602Y53026D01*
X134626Y53024D01*
X134774Y53051D01*
X134923Y53074D01*
X134945Y53083D01*
X134969Y53087D01*
X135107Y53147D01*
X135247Y53202D01*
X135267Y53216D01*
X135289Y53226D01*
X135410Y53316D01*
X135533Y53401D01*
X135549Y53419D01*
X135568Y53434D01*
X135665Y53548D01*
X135766Y53660D01*
X135778Y53681D01*
X135794Y53700D01*
X135862Y53833D01*
X135935Y53965D01*
X135941Y53988D01*
X135952Y54010D01*
X135989Y54156D01*
X136030Y54301D01*
X136032Y54330D01*
X136037Y54348D01*
X136037Y54395D01*
X136049Y54544D01*
X136049Y60456D01*
X136032Y60605D01*
X136020Y60755D01*
X136012Y60778D01*
X136009Y60802D01*
X135959Y60944D01*
X135912Y61087D01*
X135900Y61107D01*
X135892Y61130D01*
X135810Y61256D01*
X135733Y61385D01*
X135716Y61403D01*
X135703Y61423D01*
X135595Y61528D01*
X135490Y61635D01*
X135470Y61648D01*
X135452Y61665D01*
X135323Y61742D01*
X135197Y61823D01*
X135174Y61832D01*
X135153Y61844D01*
X135010Y61890D01*
X134868Y61940D01*
X134844Y61943D01*
X134821Y61950D01*
X134672Y61962D01*
X134522Y61979D01*
X134498Y61976D01*
X134474Y61978D01*
X134325Y61956D01*
X134176Y61938D01*
X134148Y61929D01*
X134129Y61926D01*
X134085Y61909D01*
X133943Y61863D01*
X133492Y61676D01*
X133248Y61628D01*
X133248Y67500D01*
X133248Y73372D01*
X133492Y73324D01*
X134594Y72867D01*
X135586Y72205D01*
X136430Y71361D01*
X137092Y70369D01*
X137606Y69128D01*
X137615Y69113D01*
X137628Y69072D01*
X137655Y69027D01*
X137674Y68978D01*
X137744Y68878D01*
X137766Y68840D01*
X137776Y68823D01*
X137778Y68821D01*
X137807Y68773D01*
X137843Y68735D01*
X137873Y68692D01*
X137964Y68610D01*
X138049Y68522D01*
X138093Y68494D01*
X138132Y68459D01*
X138239Y68400D01*
X138342Y68333D01*
X138391Y68316D01*
X138437Y68290D01*
X138555Y68257D01*
X138670Y68216D01*
X138722Y68210D01*
X138772Y68195D01*
X139015Y68176D01*
X139016Y68176D01*
X187874Y68176D01*
X188000Y68190D01*
X188126Y68197D01*
X188172Y68210D01*
X188220Y68216D01*
X188340Y68258D01*
X188461Y68293D01*
X188478Y68303D01*
X189484Y68303D01*
X189560Y68311D01*
X189636Y68310D01*
X189732Y68331D01*
X189830Y68343D01*
X189902Y68368D01*
X189977Y68385D01*
X190065Y68427D01*
X190158Y68460D01*
X190222Y68502D01*
X190291Y68534D01*
X190368Y68596D01*
X190451Y68649D01*
X190504Y68704D01*
X190564Y68752D01*
X190625Y68829D01*
X190693Y68900D01*
X190732Y68965D01*
X190780Y69025D01*
X190848Y69158D01*
X190872Y69199D01*
X190878Y69217D01*
X190891Y69243D01*
X191358Y70369D01*
X192020Y71361D01*
X192864Y72205D01*
X193856Y72867D01*
X194958Y73324D01*
X195202Y73372D01*
X195202Y67500D01*
X195202Y61628D01*
X195123Y61643D01*
X195122Y61643D01*
X195121Y61644D01*
X194955Y61657D01*
X194776Y61672D01*
X194775Y61672D01*
X194774Y61672D01*
X194611Y61647D01*
X194431Y61620D01*
X194430Y61620D01*
X194429Y61620D01*
X194268Y61556D01*
X194107Y61492D01*
X194106Y61492D01*
X194105Y61491D01*
X193968Y61396D01*
X193821Y61294D01*
X193820Y61293D01*
X193819Y61292D01*
X193706Y61167D01*
X193587Y61035D01*
X193586Y61034D01*
X193586Y61033D01*
X193501Y60881D01*
X193418Y60730D01*
X193418Y60729D01*
X193417Y60728D01*
X193366Y60547D01*
X193323Y60395D01*
X193323Y60394D01*
X193322Y60393D01*
X193303Y60149D01*
X193303Y54851D01*
X193303Y54850D01*
X193303Y54849D01*
X193323Y54676D01*
X193343Y54505D01*
X193343Y54504D01*
X193343Y54503D01*
X193402Y54338D01*
X193460Y54176D01*
X193461Y54176D01*
X193461Y54175D01*
X193560Y54021D01*
X193649Y53884D01*
X193650Y53883D01*
X193650Y53882D01*
X193771Y53766D01*
X193900Y53641D01*
X193901Y53641D01*
X193901Y53640D01*
X194042Y53556D01*
X194199Y53463D01*
X194200Y53462D01*
X194201Y53462D01*
X194367Y53409D01*
X194531Y53356D01*
X194532Y53356D01*
X194533Y53356D01*
X194713Y53342D01*
X194878Y53328D01*
X194879Y53329D01*
X194880Y53328D01*
X195123Y53357D01*
X195202Y53372D01*
X195202Y47500D01*
X195202Y41628D01*
X195123Y41643D01*
X195122Y41643D01*
X195121Y41644D01*
X194955Y41657D01*
X194776Y41672D01*
X194775Y41672D01*
X194774Y41672D01*
X194611Y41647D01*
X194431Y41620D01*
X194430Y41620D01*
X194429Y41620D01*
X194268Y41556D01*
X194107Y41492D01*
X194106Y41492D01*
X194105Y41491D01*
X193968Y41396D01*
X193821Y41294D01*
X193820Y41293D01*
X193819Y41292D01*
X193710Y41171D01*
X193587Y41035D01*
X193586Y41034D01*
X193586Y41033D01*
X193501Y40881D01*
X193418Y40730D01*
X193418Y40729D01*
X193417Y40728D01*
X193366Y40547D01*
X193323Y40395D01*
X193323Y40394D01*
X193322Y40393D01*
X193303Y40149D01*
X193303Y34851D01*
X193303Y34850D01*
X193303Y34849D01*
X193324Y34664D01*
X193343Y34505D01*
X193343Y34504D01*
X193343Y34503D01*
X193403Y34335D01*
X193460Y34176D01*
X193461Y34176D01*
X193461Y34175D01*
X193554Y34031D01*
X193649Y33884D01*
X193650Y33883D01*
X193650Y33882D01*
X193776Y33761D01*
X193900Y33641D01*
X193901Y33641D01*
X193901Y33640D01*
X194054Y33550D01*
X194199Y33463D01*
X194200Y33462D01*
X194201Y33462D01*
X194366Y33409D01*
X194531Y33356D01*
X194532Y33356D01*
X194533Y33356D01*
X194704Y33342D01*
X194878Y33328D01*
X194879Y33329D01*
X194880Y33328D01*
X195123Y33357D01*
X195202Y33372D01*
X195202Y27500D01*
X195202Y21628D01*
X195123Y21643D01*
X195122Y21643D01*
X195121Y21644D01*
X194955Y21657D01*
X194776Y21672D01*
X194775Y21672D01*
X194774Y21672D01*
X194611Y21647D01*
X194431Y21620D01*
X194430Y21620D01*
X194429Y21620D01*
X194268Y21556D01*
X194107Y21492D01*
X194106Y21492D01*
X194105Y21491D01*
X193968Y21396D01*
X193821Y21294D01*
X193820Y21293D01*
X193819Y21292D01*
X193710Y21171D01*
X193587Y21035D01*
X193586Y21034D01*
X193586Y21033D01*
X193501Y20881D01*
X193418Y20730D01*
X193418Y20729D01*
X193417Y20728D01*
X193366Y20547D01*
X193323Y20395D01*
X193323Y20394D01*
X193322Y20393D01*
X193303Y20149D01*
X193303Y4826D01*
X193306Y4800D01*
X193304Y4774D01*
X193326Y4627D01*
X193343Y4480D01*
X193351Y4455D01*
X193355Y4429D01*
X193410Y4291D01*
X193460Y4152D01*
X193474Y4130D01*
X193484Y4105D01*
X193569Y3984D01*
X193649Y3859D01*
X193668Y3841D01*
X193683Y3819D01*
X193793Y3720D01*
X193900Y3617D01*
X193922Y3603D01*
X193942Y3586D01*
X194072Y3514D01*
X194199Y3438D01*
X194224Y3430D01*
X194247Y3417D01*
X194390Y3377D01*
X194531Y3332D01*
X194557Y3330D01*
X194582Y3322D01*
X194826Y3303D01*
X202500Y3303D01*
X202526Y3306D01*
G37*
%LPC*%
G36*
X133248Y89023D02*
X133248Y89023D01*
X133248Y93372D01*
X133492Y93324D01*
X134594Y92867D01*
X135586Y92205D01*
X136430Y91361D01*
X137092Y90369D01*
X137549Y89267D01*
X137597Y89023D01*
X133248Y89023D01*
G37*
%LPD*%
%LPC*%
G36*
X190853Y89023D02*
X190853Y89023D01*
X190901Y89267D01*
X191358Y90369D01*
X192020Y91361D01*
X192864Y92205D01*
X193856Y92867D01*
X194958Y93324D01*
X195202Y93372D01*
X195202Y89023D01*
X190853Y89023D01*
G37*
%LPD*%
%LPC*%
G36*
X133248Y85977D02*
X133248Y85977D01*
X137597Y85977D01*
X137573Y85854D01*
X137573Y85853D01*
X137549Y85733D01*
X137092Y84631D01*
X136430Y83639D01*
X135586Y82795D01*
X134594Y82133D01*
X133492Y81676D01*
X133248Y81628D01*
X133248Y85977D01*
G37*
%LPD*%
%LPC*%
G36*
X194958Y81676D02*
X194958Y81676D01*
X193856Y82133D01*
X192864Y82795D01*
X192020Y83639D01*
X191358Y84631D01*
X190901Y85733D01*
X190853Y85977D01*
X195202Y85977D01*
X195202Y81628D01*
X194958Y81676D01*
G37*
%LPD*%
D10*
X131725Y27500D03*
X131725Y47500D03*
X131725Y67500D03*
X131725Y87500D03*
X196725Y27500D03*
X196725Y47500D03*
X196725Y67500D03*
X196725Y87500D03*
D11*
X104775Y155200D03*
X104775Y142500D03*
X183950Y147625D03*
D10*
X217500Y18400D03*
X297500Y92500D03*
X297500Y82500D03*
X297500Y72500D03*
X297500Y62500D03*
X297500Y52500D03*
X297500Y42500D03*
X297500Y32500D03*
X90000Y97500D03*
X110000Y45000D03*
X110000Y30000D03*
X110000Y15000D03*
X65000Y67500D03*
X65000Y82500D03*
X65000Y97500D03*
X65000Y52500D03*
X65000Y37500D03*
X65000Y22500D03*
D11*
X107475Y104575D03*
X240350Y104575D03*
X109975Y111600D03*
X233125Y111600D03*
D12*
X25000Y25000D03*
X290000Y152500D03*
D11*
X113625Y127000D03*
X186450Y127000D03*
X111800Y119300D03*
X183950Y119300D03*
M02*
