G04 EAGLE Gerber RS-274X export*
G75*
%MOMM*%
%FSLAX34Y34*%
%LPD*%
%INTop Copper*%
%IPPOS*%
%AMOC8*
5,1,8,0,0,1.08239X$1,22.5*%
G01*
%ADD10R,4.318000X0.330200*%
%ADD11R,1.050000X1.080000*%
%ADD12R,2.000000X0.600000*%
%ADD13R,5.000000X2.000000*%
%ADD14R,1.000000X1.100000*%
%ADD15R,1.100000X1.000000*%
%ADD16R,1.100000X2.500000*%
%ADD17C,0.750000*%
%ADD18R,1.000000X1.000000*%
%ADD19C,0.304800*%
%ADD20C,0.508000*%
%ADD21C,0.703200*%
%ADD22C,0.609600*%
%ADD23C,4.750000*%

G36*
X115996Y6862D02*
X115996Y6862D01*
X116022Y6860D01*
X116169Y6882D01*
X116316Y6899D01*
X116341Y6907D01*
X116367Y6911D01*
X116505Y6966D01*
X116644Y7016D01*
X116666Y7030D01*
X116691Y7040D01*
X116812Y7125D01*
X116937Y7205D01*
X116955Y7224D01*
X116977Y7239D01*
X117076Y7349D01*
X117179Y7456D01*
X117193Y7478D01*
X117210Y7498D01*
X117282Y7628D01*
X117358Y7755D01*
X117366Y7780D01*
X117379Y7803D01*
X117419Y7946D01*
X117464Y8087D01*
X117466Y8113D01*
X117474Y8138D01*
X117493Y8382D01*
X117493Y49436D01*
X117490Y49462D01*
X117492Y49488D01*
X117470Y49635D01*
X117453Y49782D01*
X117445Y49807D01*
X117441Y49833D01*
X117386Y49971D01*
X117336Y50110D01*
X117322Y50132D01*
X117312Y50157D01*
X117227Y50278D01*
X117147Y50403D01*
X117128Y50421D01*
X117113Y50443D01*
X117003Y50542D01*
X116896Y50645D01*
X116874Y50659D01*
X116854Y50676D01*
X116724Y50748D01*
X116597Y50824D01*
X116572Y50832D01*
X116549Y50845D01*
X116406Y50885D01*
X116265Y50930D01*
X116239Y50932D01*
X116214Y50940D01*
X115970Y50959D01*
X114658Y50959D01*
X114653Y50967D01*
X114634Y50985D01*
X114619Y51007D01*
X114509Y51106D01*
X114402Y51209D01*
X114380Y51223D01*
X114360Y51240D01*
X114230Y51312D01*
X114103Y51388D01*
X114078Y51396D01*
X114055Y51409D01*
X113912Y51449D01*
X113771Y51494D01*
X113745Y51496D01*
X113720Y51504D01*
X113476Y51523D01*
X111524Y51523D01*
X111498Y51520D01*
X111472Y51522D01*
X111325Y51500D01*
X111178Y51483D01*
X111153Y51475D01*
X111127Y51471D01*
X110989Y51416D01*
X110850Y51366D01*
X110828Y51352D01*
X110803Y51342D01*
X110682Y51257D01*
X110557Y51177D01*
X110539Y51158D01*
X110517Y51143D01*
X110418Y51033D01*
X110347Y50959D01*
X107165Y50959D01*
X106519Y51132D01*
X106196Y51319D01*
X106103Y51360D01*
X106013Y51409D01*
X105943Y51429D01*
X105876Y51458D01*
X105776Y51476D01*
X105678Y51504D01*
X105580Y51512D01*
X105533Y51520D01*
X105497Y51518D01*
X105434Y51523D01*
X101523Y51523D01*
X101523Y68695D01*
X101523Y68697D01*
X101523Y68699D01*
X101503Y68870D01*
X101483Y69041D01*
X101483Y69043D01*
X101482Y69045D01*
X101407Y69278D01*
X101403Y69287D01*
X101403Y82713D01*
X101407Y82722D01*
X101408Y82724D01*
X101409Y82726D01*
X101456Y82892D01*
X101503Y83057D01*
X101503Y83060D01*
X101504Y83062D01*
X101523Y83305D01*
X101523Y97500D01*
X101509Y97626D01*
X101502Y97752D01*
X101489Y97798D01*
X101483Y97846D01*
X101441Y97965D01*
X101406Y98087D01*
X101382Y98129D01*
X101366Y98174D01*
X101297Y98281D01*
X101236Y98391D01*
X101196Y98437D01*
X101177Y98467D01*
X101142Y98501D01*
X101077Y98577D01*
X93577Y106077D01*
X93478Y106156D01*
X93384Y106240D01*
X93342Y106264D01*
X93304Y106294D01*
X93190Y106348D01*
X93079Y106409D01*
X93033Y106422D01*
X92989Y106443D01*
X92866Y106469D01*
X92744Y106504D01*
X92683Y106509D01*
X92648Y106516D01*
X92600Y106515D01*
X92500Y106523D01*
X59855Y106523D01*
X59829Y106520D01*
X59803Y106522D01*
X59656Y106500D01*
X59509Y106483D01*
X59484Y106475D01*
X59458Y106471D01*
X59320Y106416D01*
X59181Y106366D01*
X59159Y106352D01*
X59134Y106342D01*
X59013Y106257D01*
X58888Y106177D01*
X58870Y106158D01*
X58848Y106143D01*
X58749Y106033D01*
X58646Y105926D01*
X58632Y105904D01*
X58615Y105884D01*
X58543Y105754D01*
X58467Y105627D01*
X58459Y105602D01*
X58446Y105579D01*
X58406Y105436D01*
X58361Y105295D01*
X58359Y105269D01*
X58351Y105244D01*
X58332Y105000D01*
X58332Y103061D01*
X57307Y100587D01*
X57305Y100585D01*
X57226Y100486D01*
X57142Y100392D01*
X57118Y100350D01*
X57088Y100312D01*
X57034Y100198D01*
X56973Y100087D01*
X56960Y100040D01*
X56939Y99997D01*
X56913Y99873D01*
X56878Y99751D01*
X56873Y99691D01*
X56866Y99656D01*
X56867Y99608D01*
X56859Y99508D01*
X56859Y48636D01*
X56093Y46786D01*
X56092Y46785D01*
X56091Y46783D01*
X56044Y46615D01*
X55997Y46451D01*
X55997Y46449D01*
X55996Y46447D01*
X55977Y46203D01*
X55977Y8382D01*
X55980Y8356D01*
X55978Y8330D01*
X56000Y8183D01*
X56017Y8036D01*
X56025Y8011D01*
X56029Y7985D01*
X56084Y7847D01*
X56134Y7708D01*
X56148Y7686D01*
X56158Y7661D01*
X56243Y7540D01*
X56323Y7415D01*
X56342Y7397D01*
X56357Y7375D01*
X56467Y7276D01*
X56574Y7173D01*
X56596Y7159D01*
X56616Y7142D01*
X56746Y7070D01*
X56873Y6994D01*
X56898Y6986D01*
X56921Y6973D01*
X57064Y6933D01*
X57205Y6888D01*
X57231Y6886D01*
X57256Y6878D01*
X57500Y6859D01*
X115970Y6859D01*
X115996Y6862D01*
G37*
G36*
X204290Y-623D02*
X204290Y-623D01*
X204356Y-621D01*
X204399Y-603D01*
X204446Y-595D01*
X204503Y-561D01*
X204563Y-536D01*
X204598Y-505D01*
X204639Y-480D01*
X204681Y-429D01*
X204729Y-385D01*
X204751Y-343D01*
X204780Y-306D01*
X204801Y-244D01*
X204832Y-185D01*
X204840Y-131D01*
X204852Y-94D01*
X204851Y-54D01*
X204859Y0D01*
X204859Y100000D01*
X204848Y100065D01*
X204846Y100131D01*
X204828Y100174D01*
X204820Y100221D01*
X204786Y100278D01*
X204761Y100338D01*
X204730Y100373D01*
X204705Y100414D01*
X204654Y100456D01*
X204610Y100504D01*
X204568Y100526D01*
X204531Y100555D01*
X204469Y100576D01*
X204410Y100607D01*
X204356Y100615D01*
X204319Y100627D01*
X204279Y100626D01*
X204225Y100634D01*
X174225Y100634D01*
X174160Y100623D01*
X174094Y100621D01*
X174051Y100603D01*
X174004Y100595D01*
X173947Y100561D01*
X173887Y100536D01*
X173852Y100505D01*
X173811Y100480D01*
X173770Y100429D01*
X173721Y100385D01*
X173699Y100343D01*
X173670Y100306D01*
X173649Y100244D01*
X173618Y100185D01*
X173610Y100131D01*
X173598Y100094D01*
X173599Y100054D01*
X173591Y100000D01*
X173591Y65000D01*
X173602Y64935D01*
X173604Y64869D01*
X173622Y64826D01*
X173630Y64779D01*
X173664Y64722D01*
X173689Y64662D01*
X173720Y64627D01*
X173745Y64586D01*
X173796Y64545D01*
X173840Y64496D01*
X173882Y64474D01*
X173919Y64445D01*
X173981Y64424D01*
X174040Y64393D01*
X174094Y64385D01*
X174131Y64373D01*
X174171Y64374D01*
X174225Y64366D01*
X188591Y64366D01*
X188591Y0D01*
X188602Y-65D01*
X188604Y-131D01*
X188622Y-174D01*
X188630Y-221D01*
X188664Y-278D01*
X188689Y-338D01*
X188720Y-373D01*
X188745Y-414D01*
X188796Y-456D01*
X188840Y-504D01*
X188882Y-526D01*
X188919Y-555D01*
X188981Y-576D01*
X189040Y-607D01*
X189094Y-615D01*
X189131Y-627D01*
X189171Y-626D01*
X189225Y-634D01*
X204225Y-634D01*
X204290Y-623D01*
G37*
G36*
X139290Y-623D02*
X139290Y-623D01*
X139356Y-621D01*
X139399Y-603D01*
X139446Y-595D01*
X139503Y-561D01*
X139563Y-536D01*
X139598Y-505D01*
X139639Y-480D01*
X139681Y-429D01*
X139729Y-385D01*
X139751Y-343D01*
X139780Y-306D01*
X139801Y-244D01*
X139832Y-185D01*
X139840Y-131D01*
X139852Y-94D01*
X139851Y-54D01*
X139859Y0D01*
X139859Y64366D01*
X154225Y64366D01*
X154290Y64377D01*
X154356Y64379D01*
X154399Y64397D01*
X154446Y64405D01*
X154503Y64439D01*
X154563Y64464D01*
X154598Y64495D01*
X154639Y64520D01*
X154681Y64571D01*
X154729Y64615D01*
X154751Y64657D01*
X154780Y64694D01*
X154801Y64756D01*
X154832Y64815D01*
X154840Y64869D01*
X154852Y64906D01*
X154851Y64946D01*
X154859Y65000D01*
X154859Y100000D01*
X154848Y100065D01*
X154846Y100131D01*
X154828Y100174D01*
X154820Y100221D01*
X154786Y100278D01*
X154761Y100338D01*
X154730Y100373D01*
X154705Y100414D01*
X154654Y100456D01*
X154610Y100504D01*
X154568Y100526D01*
X154531Y100555D01*
X154469Y100576D01*
X154410Y100607D01*
X154356Y100615D01*
X154319Y100627D01*
X154279Y100626D01*
X154225Y100634D01*
X124225Y100634D01*
X124160Y100623D01*
X124094Y100621D01*
X124051Y100603D01*
X124004Y100595D01*
X123947Y100561D01*
X123887Y100536D01*
X123852Y100505D01*
X123811Y100480D01*
X123770Y100429D01*
X123721Y100385D01*
X123699Y100343D01*
X123670Y100306D01*
X123649Y100244D01*
X123618Y100185D01*
X123610Y100131D01*
X123598Y100094D01*
X123599Y100054D01*
X123591Y100000D01*
X123591Y0D01*
X123602Y-65D01*
X123604Y-131D01*
X123622Y-174D01*
X123630Y-221D01*
X123664Y-278D01*
X123689Y-338D01*
X123720Y-373D01*
X123745Y-414D01*
X123796Y-456D01*
X123840Y-504D01*
X123882Y-526D01*
X123919Y-555D01*
X123981Y-576D01*
X124040Y-607D01*
X124094Y-615D01*
X124131Y-627D01*
X124171Y-626D01*
X124225Y-634D01*
X139225Y-634D01*
X139290Y-623D01*
G37*
G36*
X289050Y12504D02*
X289050Y12504D01*
X289076Y12502D01*
X289223Y12524D01*
X289370Y12541D01*
X289395Y12550D01*
X289421Y12553D01*
X289559Y12608D01*
X289698Y12658D01*
X289720Y12672D01*
X289745Y12682D01*
X289866Y12767D01*
X289991Y12847D01*
X290009Y12866D01*
X290031Y12881D01*
X290130Y12991D01*
X290233Y13098D01*
X290247Y13120D01*
X290264Y13140D01*
X290336Y13270D01*
X290412Y13397D01*
X290420Y13422D01*
X290433Y13445D01*
X290473Y13588D01*
X290518Y13729D01*
X290520Y13755D01*
X290528Y13780D01*
X290547Y14024D01*
X290547Y25041D01*
X310000Y25041D01*
X310026Y25044D01*
X310052Y25042D01*
X310199Y25064D01*
X310346Y25081D01*
X310371Y25089D01*
X310397Y25093D01*
X310535Y25148D01*
X310674Y25198D01*
X310696Y25212D01*
X310721Y25222D01*
X310842Y25307D01*
X310967Y25387D01*
X310985Y25406D01*
X311007Y25421D01*
X311106Y25531D01*
X311209Y25638D01*
X311223Y25660D01*
X311240Y25680D01*
X311312Y25810D01*
X311388Y25937D01*
X311396Y25962D01*
X311409Y25985D01*
X311449Y26128D01*
X311494Y26269D01*
X311496Y26295D01*
X311504Y26320D01*
X311523Y26564D01*
X311523Y98436D01*
X311520Y98462D01*
X311522Y98488D01*
X311500Y98635D01*
X311483Y98782D01*
X311475Y98807D01*
X311471Y98833D01*
X311416Y98971D01*
X311366Y99110D01*
X311352Y99132D01*
X311342Y99157D01*
X311257Y99278D01*
X311177Y99403D01*
X311158Y99421D01*
X311143Y99443D01*
X311033Y99542D01*
X310926Y99645D01*
X310904Y99659D01*
X310884Y99676D01*
X310754Y99748D01*
X310627Y99824D01*
X310602Y99832D01*
X310579Y99845D01*
X310436Y99885D01*
X310295Y99930D01*
X310269Y99932D01*
X310244Y99940D01*
X310000Y99959D01*
X290547Y99959D01*
X290547Y110976D01*
X290544Y111002D01*
X290546Y111028D01*
X290524Y111175D01*
X290507Y111322D01*
X290498Y111347D01*
X290495Y111373D01*
X290440Y111511D01*
X290390Y111650D01*
X290376Y111672D01*
X290366Y111697D01*
X290281Y111818D01*
X290201Y111943D01*
X290182Y111961D01*
X290167Y111983D01*
X290057Y112082D01*
X289950Y112185D01*
X289928Y112199D01*
X289908Y112216D01*
X289778Y112288D01*
X289651Y112364D01*
X289626Y112372D01*
X289603Y112385D01*
X289460Y112425D01*
X289319Y112470D01*
X289293Y112472D01*
X289268Y112480D01*
X289024Y112499D01*
X285976Y112499D01*
X285950Y112496D01*
X285924Y112498D01*
X285777Y112476D01*
X285630Y112459D01*
X285605Y112450D01*
X285579Y112447D01*
X285441Y112392D01*
X285302Y112342D01*
X285280Y112328D01*
X285255Y112318D01*
X285134Y112233D01*
X285009Y112153D01*
X284991Y112134D01*
X284969Y112119D01*
X284870Y112009D01*
X284767Y111902D01*
X284753Y111880D01*
X284736Y111860D01*
X284664Y111730D01*
X284588Y111603D01*
X284580Y111578D01*
X284567Y111555D01*
X284527Y111412D01*
X284482Y111271D01*
X284480Y111245D01*
X284472Y111220D01*
X284453Y110976D01*
X284453Y105000D01*
X284456Y104974D01*
X284454Y104948D01*
X284476Y104801D01*
X284493Y104654D01*
X284501Y104629D01*
X284505Y104603D01*
X284560Y104465D01*
X284610Y104326D01*
X284624Y104304D01*
X284634Y104279D01*
X284719Y104158D01*
X284799Y104033D01*
X284818Y104015D01*
X284833Y103993D01*
X284943Y103894D01*
X285050Y103791D01*
X285072Y103777D01*
X285092Y103760D01*
X285222Y103688D01*
X285349Y103612D01*
X285374Y103604D01*
X285397Y103591D01*
X285540Y103551D01*
X285681Y103506D01*
X285707Y103504D01*
X285732Y103496D01*
X285976Y103477D01*
X285977Y103477D01*
X285977Y21523D01*
X285976Y21523D01*
X285950Y21520D01*
X285924Y21522D01*
X285777Y21500D01*
X285630Y21483D01*
X285605Y21475D01*
X285579Y21471D01*
X285441Y21416D01*
X285302Y21366D01*
X285280Y21352D01*
X285255Y21342D01*
X285134Y21257D01*
X285009Y21177D01*
X284991Y21158D01*
X284969Y21143D01*
X284870Y21033D01*
X284767Y20926D01*
X284753Y20904D01*
X284736Y20884D01*
X284664Y20754D01*
X284588Y20627D01*
X284580Y20602D01*
X284567Y20579D01*
X284527Y20436D01*
X284482Y20295D01*
X284480Y20269D01*
X284472Y20244D01*
X284453Y20000D01*
X284453Y14024D01*
X284456Y13998D01*
X284454Y13972D01*
X284476Y13825D01*
X284493Y13678D01*
X284501Y13653D01*
X284505Y13627D01*
X284560Y13489D01*
X284610Y13350D01*
X284624Y13328D01*
X284634Y13303D01*
X284719Y13182D01*
X284799Y13057D01*
X284818Y13039D01*
X284833Y13017D01*
X284943Y12918D01*
X285050Y12815D01*
X285072Y12801D01*
X285092Y12784D01*
X285222Y12712D01*
X285349Y12636D01*
X285374Y12628D01*
X285397Y12615D01*
X285540Y12575D01*
X285681Y12530D01*
X285707Y12528D01*
X285732Y12520D01*
X285976Y12501D01*
X289024Y12501D01*
X289050Y12504D01*
G37*
D10*
X74460Y142500D03*
X74460Y136150D03*
X74460Y148850D03*
X74460Y129800D03*
X74460Y155200D03*
X74460Y161550D03*
X74460Y123450D03*
X74460Y117100D03*
X74460Y167900D03*
D11*
X140750Y138113D03*
X123250Y138113D03*
D12*
X270000Y32500D03*
X270000Y42500D03*
X270000Y52500D03*
X270000Y62500D03*
X270000Y72500D03*
D13*
X287500Y112500D03*
X287500Y12500D03*
D12*
X270000Y82500D03*
X270000Y92500D03*
D14*
X112500Y59000D03*
X112500Y76000D03*
D15*
G36*
X230657Y46414D02*
X238434Y38637D01*
X231363Y31566D01*
X223586Y39343D01*
X230657Y46414D01*
G37*
G36*
X218637Y58434D02*
X226414Y50657D01*
X219343Y43586D01*
X211566Y51363D01*
X218637Y58434D01*
G37*
D11*
X210925Y153325D03*
X193425Y153325D03*
D15*
X210825Y134500D03*
X193825Y134500D03*
X210825Y114300D03*
X193825Y114300D03*
D11*
X140750Y153988D03*
X123250Y153988D03*
X246125Y18400D03*
X228625Y18400D03*
D16*
X164225Y87000D03*
D17*
X131725Y27500D03*
X131725Y47500D03*
X131725Y67500D03*
X131725Y87500D03*
X196725Y27500D03*
X196725Y47500D03*
X196725Y67500D03*
X196725Y87500D03*
D18*
X149225Y95000D03*
X179225Y95000D03*
D19*
X164225Y126525D02*
X164219Y126997D01*
X164202Y127468D01*
X164174Y127939D01*
X164134Y128409D01*
X164083Y128878D01*
X164020Y129346D01*
X163946Y129812D01*
X163861Y130276D01*
X163765Y130738D01*
X163658Y131198D01*
X163539Y131654D01*
X163410Y132108D01*
X163269Y132559D01*
X163118Y133006D01*
X162956Y133449D01*
X162784Y133888D01*
X162600Y134323D01*
X162407Y134753D01*
X162203Y135178D01*
X161989Y135599D01*
X161764Y136014D01*
X161530Y136423D01*
X161286Y136827D01*
X161032Y137225D01*
X160769Y137616D01*
X160496Y138002D01*
X160214Y138380D01*
X159923Y138751D01*
X159623Y139116D01*
X159315Y139472D01*
X158998Y139822D01*
X158672Y140163D01*
X158338Y140497D01*
X157997Y140823D01*
X157647Y141140D01*
X157291Y141448D01*
X156926Y141748D01*
X156555Y142039D01*
X156177Y142321D01*
X155791Y142594D01*
X155400Y142857D01*
X155002Y143111D01*
X154598Y143355D01*
X154189Y143589D01*
X153774Y143814D01*
X153353Y144028D01*
X152928Y144232D01*
X152498Y144425D01*
X152063Y144609D01*
X151624Y144781D01*
X151181Y144943D01*
X150734Y145094D01*
X150283Y145235D01*
X149829Y145364D01*
X149373Y145483D01*
X148913Y145590D01*
X148451Y145686D01*
X147987Y145771D01*
X147521Y145845D01*
X147053Y145908D01*
X146584Y145959D01*
X146114Y145999D01*
X145643Y146027D01*
X145172Y146044D01*
X144700Y146050D01*
X140750Y146050D02*
X140750Y153988D01*
X140750Y146050D02*
X144700Y146050D01*
X140750Y146050D02*
X140750Y138113D01*
X164225Y126525D02*
X164225Y87000D01*
X123250Y138113D02*
X123250Y153988D01*
X123250Y148850D02*
X74460Y148850D01*
X123250Y148850D02*
X123250Y153988D01*
X104775Y155200D02*
X74460Y155200D01*
D20*
X104775Y155200D03*
D19*
X104775Y142500D02*
X74460Y142500D01*
D20*
X104775Y142500D03*
D19*
X196725Y47500D02*
X215479Y47500D01*
X218990Y51010D01*
X189225Y95000D02*
X179225Y95000D01*
X189225Y95000D02*
X196725Y87500D01*
X149225Y95000D02*
X139225Y95000D01*
X131725Y87500D01*
X126500Y76000D02*
X112500Y76000D01*
X126500Y76000D02*
X127500Y75000D01*
X127500Y71725D01*
X131725Y67500D01*
D20*
X183950Y147625D03*
D21*
X217500Y18400D03*
D22*
X228625Y18400D01*
D21*
X297500Y92500D03*
X297500Y82500D03*
X297500Y72500D03*
X297500Y62500D03*
X297500Y52500D03*
X297500Y42500D03*
X297500Y32500D03*
X90000Y97500D03*
X110000Y45000D03*
X110000Y30000D03*
X110000Y15000D03*
X65000Y67500D03*
X65000Y82500D03*
X65000Y97500D03*
X65000Y52500D03*
X65000Y37500D03*
X65000Y22500D03*
D22*
X270000Y52500D02*
X297500Y52500D01*
X193425Y153325D02*
X184650Y148325D01*
X183950Y147625D01*
D19*
X228625Y36604D02*
X228625Y18400D01*
X228625Y36604D02*
X231010Y38990D01*
X112500Y47500D02*
X112500Y59000D01*
X112500Y47500D02*
X110000Y45000D01*
X98950Y171450D02*
X225425Y171450D01*
X255350Y141525D01*
X255350Y94650D01*
X257500Y92500D01*
X270000Y92500D01*
X95400Y167900D02*
X74460Y167900D01*
X95400Y167900D02*
X98950Y171450D01*
X107950Y165100D02*
X222250Y165100D01*
X247850Y139500D01*
X247850Y92150D01*
X257500Y82500D01*
X270000Y82500D01*
X99050Y161550D02*
X74460Y161550D01*
X99050Y161550D02*
X102500Y165000D01*
X107850Y165000D01*
X107950Y165100D01*
X210825Y134500D02*
X218000Y129500D01*
X225000Y122500D01*
X225000Y77500D01*
X260000Y42500D01*
X270000Y42500D01*
X210925Y129600D02*
X210925Y153325D01*
X210825Y134500D02*
X210925Y129600D01*
X210825Y114300D02*
X210825Y109175D01*
X217500Y102500D01*
X217500Y72500D01*
X250000Y40000D01*
X250000Y32500D01*
X270000Y32500D01*
X246125Y18400D02*
X245900Y18400D01*
X250000Y22500D01*
X250000Y32500D01*
D20*
X107475Y104575D03*
X240350Y104575D03*
D19*
X257425Y72500D02*
X270000Y72500D01*
X94950Y117100D02*
X74460Y117100D01*
X94950Y117100D02*
X107475Y104575D01*
X240350Y89575D02*
X257425Y72500D01*
X240350Y89575D02*
X240350Y104575D01*
D20*
X109975Y111600D03*
X233125Y111600D03*
D19*
X233125Y84375D01*
X255000Y62500D01*
X270000Y62500D01*
X98125Y123450D02*
X74460Y123450D01*
X98125Y123450D02*
X109975Y111600D01*
D23*
X25000Y25000D03*
X290000Y152500D03*
D20*
X113625Y127000D03*
X186450Y127000D03*
D19*
X104475Y136150D02*
X74460Y136150D01*
X104475Y136150D02*
X113625Y127000D01*
X193825Y134500D02*
X193950Y134500D01*
X186450Y127000D01*
D20*
X111800Y119300D03*
X183950Y119300D03*
D19*
X101300Y129800D02*
X74460Y129800D01*
X101300Y129800D02*
X111800Y119300D01*
X188950Y114300D02*
X193825Y114300D01*
X188950Y114300D02*
X183950Y119300D01*
M02*
