G04 EAGLE Gerber RS-274X export*
G75*
%MOMM*%
%FSLAX34Y34*%
%LPD*%
%INEAGLE Copper Layer 15*%
%IPPOS*%
%AMOC8*
5,1,8,0,0,1.08239X$1,22.5*%
G01*
%ADD10C,0.703200*%
%ADD11C,0.508000*%
%ADD12C,2.640000*%

G36*
X133028Y4830D02*
X133028Y4830D01*
X133054Y4828D01*
X133201Y4850D01*
X133348Y4867D01*
X133373Y4875D01*
X133399Y4879D01*
X133537Y4934D01*
X133676Y4984D01*
X133698Y4998D01*
X133723Y5008D01*
X133844Y5093D01*
X133969Y5173D01*
X133987Y5192D01*
X134009Y5207D01*
X134108Y5317D01*
X134211Y5424D01*
X134225Y5446D01*
X134242Y5466D01*
X134314Y5596D01*
X134390Y5723D01*
X134398Y5748D01*
X134411Y5771D01*
X134451Y5914D01*
X134496Y6055D01*
X134498Y6081D01*
X134506Y6106D01*
X134525Y6350D01*
X134525Y18396D01*
X134522Y18422D01*
X134524Y18448D01*
X134502Y18595D01*
X134485Y18742D01*
X134477Y18767D01*
X134473Y18793D01*
X134418Y18931D01*
X134368Y19070D01*
X134354Y19092D01*
X134344Y19117D01*
X134259Y19238D01*
X134179Y19363D01*
X134160Y19381D01*
X134145Y19403D01*
X134035Y19502D01*
X133928Y19605D01*
X133906Y19619D01*
X133886Y19636D01*
X133756Y19708D01*
X133629Y19784D01*
X133604Y19792D01*
X133581Y19805D01*
X133438Y19845D01*
X133297Y19890D01*
X133271Y19892D01*
X133246Y19900D01*
X133002Y19919D01*
X130217Y19919D01*
X127431Y21073D01*
X125298Y23206D01*
X124144Y25992D01*
X124144Y29008D01*
X125298Y31794D01*
X127431Y33927D01*
X130217Y35081D01*
X133002Y35081D01*
X133028Y35084D01*
X133054Y35082D01*
X133201Y35104D01*
X133348Y35121D01*
X133373Y35129D01*
X133399Y35133D01*
X133537Y35188D01*
X133676Y35238D01*
X133698Y35252D01*
X133723Y35262D01*
X133844Y35347D01*
X133969Y35427D01*
X133987Y35446D01*
X134009Y35461D01*
X134108Y35571D01*
X134211Y35678D01*
X134225Y35700D01*
X134242Y35720D01*
X134314Y35850D01*
X134390Y35977D01*
X134398Y36002D01*
X134411Y36025D01*
X134451Y36168D01*
X134496Y36309D01*
X134498Y36335D01*
X134506Y36360D01*
X134525Y36604D01*
X134525Y38396D01*
X134522Y38422D01*
X134524Y38448D01*
X134502Y38595D01*
X134485Y38742D01*
X134477Y38767D01*
X134473Y38793D01*
X134418Y38931D01*
X134368Y39070D01*
X134354Y39092D01*
X134344Y39117D01*
X134259Y39238D01*
X134179Y39363D01*
X134160Y39381D01*
X134145Y39403D01*
X134035Y39502D01*
X133928Y39605D01*
X133906Y39619D01*
X133886Y39636D01*
X133756Y39708D01*
X133629Y39784D01*
X133604Y39792D01*
X133581Y39805D01*
X133438Y39845D01*
X133297Y39890D01*
X133271Y39892D01*
X133246Y39900D01*
X133002Y39919D01*
X130217Y39919D01*
X127431Y41073D01*
X125298Y43206D01*
X124144Y45992D01*
X124144Y49008D01*
X125298Y51794D01*
X127431Y53927D01*
X130217Y55081D01*
X133002Y55081D01*
X133028Y55084D01*
X133054Y55082D01*
X133201Y55104D01*
X133348Y55121D01*
X133373Y55129D01*
X133399Y55133D01*
X133537Y55188D01*
X133676Y55238D01*
X133698Y55252D01*
X133723Y55262D01*
X133844Y55347D01*
X133969Y55427D01*
X133987Y55446D01*
X134009Y55461D01*
X134108Y55571D01*
X134211Y55678D01*
X134225Y55700D01*
X134242Y55720D01*
X134314Y55850D01*
X134390Y55977D01*
X134398Y56002D01*
X134411Y56025D01*
X134451Y56168D01*
X134496Y56309D01*
X134498Y56335D01*
X134506Y56360D01*
X134525Y56604D01*
X134525Y58396D01*
X134522Y58422D01*
X134524Y58448D01*
X134502Y58595D01*
X134485Y58742D01*
X134477Y58767D01*
X134473Y58793D01*
X134418Y58931D01*
X134368Y59070D01*
X134354Y59092D01*
X134344Y59117D01*
X134259Y59238D01*
X134179Y59363D01*
X134160Y59381D01*
X134145Y59403D01*
X134035Y59502D01*
X133928Y59605D01*
X133906Y59619D01*
X133886Y59636D01*
X133756Y59708D01*
X133629Y59784D01*
X133604Y59792D01*
X133581Y59805D01*
X133438Y59845D01*
X133297Y59890D01*
X133271Y59892D01*
X133246Y59900D01*
X133002Y59919D01*
X130217Y59919D01*
X127431Y61073D01*
X125298Y63206D01*
X124144Y65992D01*
X124144Y69008D01*
X125298Y71794D01*
X127431Y73927D01*
X130217Y75081D01*
X133233Y75081D01*
X136019Y73927D01*
X138152Y71794D01*
X138630Y70640D01*
X138667Y70573D01*
X138695Y70502D01*
X138751Y70421D01*
X138799Y70335D01*
X138850Y70279D01*
X138894Y70216D01*
X138967Y70150D01*
X139033Y70077D01*
X139096Y70034D01*
X139153Y69983D01*
X139239Y69935D01*
X139320Y69879D01*
X139391Y69851D01*
X139458Y69814D01*
X139553Y69787D01*
X139644Y69751D01*
X139720Y69740D01*
X139793Y69719D01*
X139942Y69707D01*
X139989Y69700D01*
X140008Y69702D01*
X140037Y69700D01*
X188413Y69700D01*
X188489Y69708D01*
X188565Y69707D01*
X188662Y69728D01*
X188759Y69740D01*
X188831Y69765D01*
X188906Y69782D01*
X188995Y69824D01*
X189087Y69857D01*
X189152Y69899D01*
X189221Y69931D01*
X189297Y69993D01*
X189380Y70046D01*
X189433Y70101D01*
X189493Y70149D01*
X189554Y70226D01*
X189622Y70297D01*
X189662Y70362D01*
X189709Y70422D01*
X189777Y70555D01*
X189801Y70596D01*
X189807Y70614D01*
X189820Y70640D01*
X190298Y71794D01*
X192431Y73927D01*
X195217Y75081D01*
X198233Y75081D01*
X201019Y73927D01*
X203152Y71794D01*
X204306Y69008D01*
X204306Y65992D01*
X203152Y63206D01*
X201019Y61073D01*
X198233Y59919D01*
X196350Y59919D01*
X196324Y59916D01*
X196298Y59918D01*
X196151Y59896D01*
X196004Y59879D01*
X195979Y59871D01*
X195953Y59867D01*
X195815Y59812D01*
X195676Y59762D01*
X195654Y59748D01*
X195629Y59738D01*
X195508Y59653D01*
X195383Y59573D01*
X195365Y59554D01*
X195343Y59539D01*
X195244Y59429D01*
X195141Y59322D01*
X195127Y59300D01*
X195110Y59280D01*
X195038Y59150D01*
X194962Y59023D01*
X194954Y58998D01*
X194941Y58975D01*
X194901Y58832D01*
X194856Y58691D01*
X194854Y58665D01*
X194846Y58640D01*
X194827Y58396D01*
X194827Y56604D01*
X194829Y56583D01*
X194828Y56565D01*
X194828Y56560D01*
X194828Y56552D01*
X194850Y56405D01*
X194867Y56258D01*
X194875Y56233D01*
X194879Y56207D01*
X194934Y56069D01*
X194984Y55930D01*
X194998Y55908D01*
X195008Y55883D01*
X195093Y55762D01*
X195173Y55637D01*
X195192Y55619D01*
X195207Y55597D01*
X195317Y55498D01*
X195424Y55395D01*
X195446Y55381D01*
X195466Y55364D01*
X195596Y55292D01*
X195723Y55216D01*
X195748Y55208D01*
X195771Y55195D01*
X195914Y55155D01*
X196055Y55110D01*
X196081Y55108D01*
X196106Y55100D01*
X196350Y55081D01*
X198233Y55081D01*
X201019Y53927D01*
X203152Y51794D01*
X204306Y49008D01*
X204306Y45992D01*
X203152Y43206D01*
X201019Y41073D01*
X198233Y39919D01*
X196350Y39919D01*
X196324Y39916D01*
X196298Y39918D01*
X196151Y39896D01*
X196004Y39879D01*
X195979Y39871D01*
X195953Y39867D01*
X195815Y39812D01*
X195676Y39762D01*
X195654Y39748D01*
X195629Y39738D01*
X195508Y39653D01*
X195383Y39573D01*
X195365Y39554D01*
X195343Y39539D01*
X195244Y39429D01*
X195141Y39322D01*
X195127Y39300D01*
X195110Y39280D01*
X195038Y39150D01*
X194962Y39023D01*
X194954Y38998D01*
X194941Y38975D01*
X194901Y38832D01*
X194856Y38691D01*
X194854Y38665D01*
X194846Y38640D01*
X194827Y38396D01*
X194827Y36604D01*
X194830Y36578D01*
X194828Y36552D01*
X194850Y36405D01*
X194867Y36258D01*
X194875Y36233D01*
X194879Y36207D01*
X194934Y36069D01*
X194984Y35930D01*
X194998Y35908D01*
X195008Y35883D01*
X195093Y35762D01*
X195173Y35637D01*
X195192Y35619D01*
X195207Y35597D01*
X195317Y35498D01*
X195424Y35395D01*
X195446Y35381D01*
X195466Y35364D01*
X195596Y35292D01*
X195723Y35216D01*
X195748Y35208D01*
X195771Y35195D01*
X195914Y35155D01*
X196055Y35110D01*
X196081Y35108D01*
X196106Y35100D01*
X196350Y35081D01*
X198233Y35081D01*
X201019Y33927D01*
X203152Y31794D01*
X204306Y29008D01*
X204306Y25992D01*
X203152Y23206D01*
X201019Y21073D01*
X198233Y19919D01*
X196350Y19919D01*
X196324Y19916D01*
X196298Y19918D01*
X196151Y19896D01*
X196004Y19879D01*
X195979Y19871D01*
X195953Y19867D01*
X195815Y19812D01*
X195676Y19762D01*
X195654Y19748D01*
X195629Y19738D01*
X195508Y19653D01*
X195383Y19573D01*
X195365Y19554D01*
X195343Y19539D01*
X195244Y19429D01*
X195141Y19322D01*
X195127Y19300D01*
X195110Y19280D01*
X195038Y19150D01*
X194962Y19023D01*
X194954Y18998D01*
X194941Y18975D01*
X194901Y18832D01*
X194856Y18691D01*
X194854Y18665D01*
X194846Y18640D01*
X194827Y18396D01*
X194827Y6350D01*
X194830Y6324D01*
X194828Y6298D01*
X194850Y6151D01*
X194867Y6004D01*
X194875Y5979D01*
X194879Y5953D01*
X194934Y5815D01*
X194984Y5676D01*
X194998Y5654D01*
X195008Y5629D01*
X195093Y5508D01*
X195173Y5383D01*
X195192Y5365D01*
X195207Y5343D01*
X195317Y5244D01*
X195424Y5141D01*
X195446Y5127D01*
X195466Y5110D01*
X195596Y5038D01*
X195723Y4962D01*
X195748Y4954D01*
X195771Y4941D01*
X195914Y4901D01*
X196055Y4856D01*
X196081Y4854D01*
X196106Y4846D01*
X196350Y4827D01*
X307975Y4827D01*
X308001Y4830D01*
X308027Y4828D01*
X308174Y4850D01*
X308321Y4867D01*
X308346Y4875D01*
X308372Y4879D01*
X308510Y4934D01*
X308649Y4984D01*
X308671Y4998D01*
X308696Y5008D01*
X308817Y5093D01*
X308942Y5173D01*
X308960Y5192D01*
X308982Y5207D01*
X309081Y5317D01*
X309184Y5424D01*
X309198Y5446D01*
X309215Y5466D01*
X309287Y5596D01*
X309363Y5723D01*
X309371Y5748D01*
X309384Y5771D01*
X309424Y5914D01*
X309469Y6055D01*
X309471Y6081D01*
X309479Y6106D01*
X309498Y6350D01*
X309498Y146800D01*
X309493Y146850D01*
X309495Y146900D01*
X309473Y147023D01*
X309458Y147146D01*
X309441Y147194D01*
X309432Y147243D01*
X309383Y147357D01*
X309341Y147474D01*
X309314Y147517D01*
X309294Y147563D01*
X309219Y147663D01*
X309152Y147767D01*
X309116Y147802D01*
X309086Y147843D01*
X308991Y147923D01*
X308901Y148009D01*
X308858Y148035D01*
X308820Y148068D01*
X308709Y148124D01*
X308602Y148188D01*
X308554Y148204D01*
X308509Y148227D01*
X308389Y148257D01*
X308270Y148295D01*
X308220Y148299D01*
X308171Y148311D01*
X308047Y148313D01*
X307923Y148322D01*
X307873Y148315D01*
X307823Y148316D01*
X307701Y148289D01*
X307578Y148271D01*
X307531Y148252D01*
X307482Y148241D01*
X307370Y148188D01*
X307254Y148142D01*
X307213Y148113D01*
X307167Y148092D01*
X307070Y148014D01*
X306968Y147943D01*
X306934Y147906D01*
X306895Y147874D01*
X306818Y147777D01*
X306735Y147684D01*
X306710Y147640D01*
X306679Y147601D01*
X306568Y147383D01*
X304636Y142720D01*
X299780Y137864D01*
X293434Y135235D01*
X286566Y135235D01*
X280220Y137864D01*
X275364Y142720D01*
X272735Y149066D01*
X272735Y155934D01*
X275364Y162280D01*
X280220Y167136D01*
X286566Y169765D01*
X293434Y169765D01*
X299780Y167136D01*
X304636Y162280D01*
X306568Y157617D01*
X306592Y157573D01*
X306609Y157526D01*
X306677Y157421D01*
X306737Y157312D01*
X306771Y157275D01*
X306798Y157233D01*
X306888Y157146D01*
X306971Y157054D01*
X307013Y157026D01*
X307049Y156991D01*
X307156Y156927D01*
X307258Y156856D01*
X307305Y156837D01*
X307348Y156812D01*
X307466Y156774D01*
X307582Y156728D01*
X307632Y156721D01*
X307680Y156705D01*
X307804Y156696D01*
X307927Y156677D01*
X307977Y156682D01*
X308027Y156678D01*
X308150Y156696D01*
X308274Y156706D01*
X308322Y156722D01*
X308372Y156729D01*
X308487Y156775D01*
X308606Y156813D01*
X308649Y156839D01*
X308696Y156858D01*
X308798Y156929D01*
X308904Y156993D01*
X308941Y157028D01*
X308982Y157057D01*
X309065Y157149D01*
X309154Y157236D01*
X309182Y157278D01*
X309215Y157316D01*
X309276Y157425D01*
X309343Y157529D01*
X309360Y157577D01*
X309384Y157621D01*
X309418Y157740D01*
X309459Y157858D01*
X309465Y157908D01*
X309479Y157956D01*
X309498Y158200D01*
X309498Y171450D01*
X309495Y171476D01*
X309497Y171502D01*
X309475Y171649D01*
X309458Y171796D01*
X309450Y171821D01*
X309446Y171847D01*
X309391Y171985D01*
X309341Y172124D01*
X309327Y172146D01*
X309317Y172171D01*
X309232Y172292D01*
X309152Y172417D01*
X309133Y172435D01*
X309118Y172457D01*
X309008Y172556D01*
X308901Y172659D01*
X308879Y172673D01*
X308859Y172690D01*
X308729Y172762D01*
X308602Y172838D01*
X308577Y172846D01*
X308554Y172859D01*
X308411Y172899D01*
X308270Y172944D01*
X308244Y172946D01*
X308219Y172954D01*
X307975Y172973D01*
X57823Y172973D01*
X57797Y172970D01*
X57771Y172972D01*
X57624Y172950D01*
X57477Y172933D01*
X57452Y172925D01*
X57426Y172921D01*
X57288Y172866D01*
X57149Y172816D01*
X57127Y172802D01*
X57102Y172792D01*
X56981Y172707D01*
X56856Y172627D01*
X56838Y172608D01*
X56816Y172593D01*
X56717Y172483D01*
X56614Y172376D01*
X56600Y172354D01*
X56583Y172334D01*
X56511Y172204D01*
X56435Y172077D01*
X56427Y172052D01*
X56414Y172029D01*
X56374Y171886D01*
X56329Y171745D01*
X56327Y171719D01*
X56319Y171694D01*
X56300Y171450D01*
X56300Y103465D01*
X55743Y102120D01*
X55742Y102118D01*
X55741Y102117D01*
X55694Y101949D01*
X55647Y101785D01*
X55647Y101783D01*
X55646Y101781D01*
X55627Y101537D01*
X55627Y45973D01*
X53194Y45973D01*
X53192Y45973D01*
X53190Y45973D01*
X53019Y45953D01*
X52848Y45933D01*
X52846Y45933D01*
X52844Y45932D01*
X52611Y45857D01*
X50960Y45173D01*
X29070Y45173D01*
X29020Y45168D01*
X28970Y45170D01*
X28847Y45148D01*
X28724Y45133D01*
X28677Y45116D01*
X28627Y45107D01*
X28513Y45058D01*
X28396Y45016D01*
X28354Y44989D01*
X28307Y44969D01*
X28208Y44894D01*
X28103Y44827D01*
X28068Y44791D01*
X28028Y44761D01*
X27947Y44666D01*
X27861Y44576D01*
X27835Y44533D01*
X27803Y44495D01*
X27746Y44384D01*
X27682Y44277D01*
X27667Y44229D01*
X27644Y44184D01*
X27614Y44064D01*
X27576Y43945D01*
X27572Y43895D01*
X27560Y43846D01*
X27558Y43722D01*
X27548Y43598D01*
X27555Y43548D01*
X27555Y43498D01*
X27581Y43376D01*
X27600Y43253D01*
X27618Y43206D01*
X27629Y43157D01*
X27682Y43045D01*
X27728Y42929D01*
X27757Y42888D01*
X27779Y42842D01*
X27856Y42745D01*
X27927Y42643D01*
X27965Y42609D01*
X27996Y42570D01*
X28094Y42493D01*
X28186Y42410D01*
X28230Y42385D01*
X28270Y42354D01*
X28487Y42243D01*
X34780Y39636D01*
X39636Y34780D01*
X42265Y28434D01*
X42265Y21566D01*
X39636Y15220D01*
X34780Y10364D01*
X28487Y7757D01*
X28443Y7733D01*
X28396Y7716D01*
X28291Y7648D01*
X28183Y7588D01*
X28145Y7554D01*
X28103Y7527D01*
X28017Y7437D01*
X27925Y7354D01*
X27896Y7312D01*
X27861Y7276D01*
X27797Y7170D01*
X27726Y7067D01*
X27708Y7020D01*
X27682Y6977D01*
X27644Y6859D01*
X27599Y6743D01*
X27591Y6693D01*
X27576Y6645D01*
X27566Y6521D01*
X27548Y6398D01*
X27552Y6348D01*
X27548Y6298D01*
X27566Y6175D01*
X27577Y6051D01*
X27592Y6003D01*
X27600Y5953D01*
X27646Y5838D01*
X27684Y5719D01*
X27710Y5676D01*
X27728Y5629D01*
X27799Y5527D01*
X27863Y5421D01*
X27899Y5384D01*
X27927Y5343D01*
X28019Y5260D01*
X28106Y5171D01*
X28149Y5143D01*
X28186Y5110D01*
X28295Y5050D01*
X28400Y4982D01*
X28447Y4966D01*
X28491Y4941D01*
X28611Y4907D01*
X28728Y4866D01*
X28778Y4860D01*
X28826Y4846D01*
X29070Y4827D01*
X133002Y4827D01*
X133028Y4830D01*
G37*
%LPC*%
G36*
X106161Y97970D02*
X106161Y97970D01*
X103734Y98976D01*
X101876Y100834D01*
X100870Y103261D01*
X100870Y105889D01*
X101876Y108316D01*
X102924Y109365D01*
X103003Y109464D01*
X103087Y109558D01*
X103111Y109600D01*
X103141Y109638D01*
X103195Y109752D01*
X103256Y109863D01*
X103269Y109909D01*
X103290Y109953D01*
X103316Y110076D01*
X103351Y110198D01*
X103356Y110259D01*
X103363Y110293D01*
X103362Y110341D01*
X103370Y110442D01*
X103370Y112914D01*
X104376Y115341D01*
X105010Y115976D01*
X105058Y116036D01*
X105113Y116089D01*
X105166Y116171D01*
X105227Y116249D01*
X105260Y116318D01*
X105301Y116382D01*
X105334Y116475D01*
X105376Y116564D01*
X105392Y116638D01*
X105417Y116711D01*
X105428Y116809D01*
X105449Y116905D01*
X105448Y116981D01*
X105456Y117057D01*
X105445Y117155D01*
X105443Y117253D01*
X105425Y117327D01*
X105416Y117403D01*
X105370Y117545D01*
X105358Y117591D01*
X105349Y117608D01*
X105340Y117636D01*
X105195Y117986D01*
X105195Y120614D01*
X106201Y123041D01*
X106835Y123676D01*
X106883Y123736D01*
X106938Y123789D01*
X106991Y123872D01*
X107052Y123949D01*
X107085Y124018D01*
X107126Y124082D01*
X107159Y124175D01*
X107201Y124264D01*
X107217Y124339D01*
X107242Y124411D01*
X107253Y124509D01*
X107274Y124605D01*
X107273Y124681D01*
X107281Y124757D01*
X107270Y124855D01*
X107268Y124953D01*
X107250Y125027D01*
X107241Y125103D01*
X107195Y125245D01*
X107183Y125291D01*
X107174Y125308D01*
X107165Y125336D01*
X107020Y125686D01*
X107020Y128314D01*
X108026Y130741D01*
X109884Y132599D01*
X112311Y133605D01*
X114939Y133605D01*
X117366Y132599D01*
X119224Y130741D01*
X120230Y128314D01*
X120230Y125686D01*
X119224Y123259D01*
X118590Y122624D01*
X118542Y122564D01*
X118487Y122511D01*
X118434Y122429D01*
X118373Y122351D01*
X118340Y122282D01*
X118299Y122218D01*
X118266Y122125D01*
X118224Y122036D01*
X118208Y121962D01*
X118183Y121889D01*
X118172Y121791D01*
X118151Y121695D01*
X118152Y121619D01*
X118144Y121543D01*
X118155Y121445D01*
X118157Y121347D01*
X118175Y121273D01*
X118184Y121197D01*
X118230Y121055D01*
X118242Y121009D01*
X118251Y120992D01*
X118260Y120964D01*
X118405Y120614D01*
X118405Y117986D01*
X117399Y115559D01*
X116765Y114924D01*
X116717Y114864D01*
X116662Y114811D01*
X116609Y114728D01*
X116548Y114651D01*
X116515Y114582D01*
X116474Y114518D01*
X116441Y114425D01*
X116399Y114336D01*
X116383Y114261D01*
X116358Y114189D01*
X116347Y114091D01*
X116326Y113995D01*
X116327Y113919D01*
X116319Y113843D01*
X116330Y113745D01*
X116332Y113647D01*
X116350Y113573D01*
X116359Y113497D01*
X116405Y113355D01*
X116417Y113309D01*
X116426Y113292D01*
X116435Y113264D01*
X116580Y112914D01*
X116580Y110286D01*
X115574Y107859D01*
X114526Y106810D01*
X114447Y106711D01*
X114363Y106617D01*
X114339Y106575D01*
X114309Y106537D01*
X114255Y106423D01*
X114194Y106312D01*
X114181Y106266D01*
X114160Y106222D01*
X114134Y106099D01*
X114099Y105977D01*
X114094Y105916D01*
X114087Y105882D01*
X114088Y105834D01*
X114080Y105733D01*
X114080Y103261D01*
X113074Y100834D01*
X111216Y98976D01*
X108789Y97970D01*
X106161Y97970D01*
G37*
%LPD*%
%LPC*%
G36*
X103461Y135895D02*
X103461Y135895D01*
X101034Y136901D01*
X99176Y138759D01*
X98170Y141186D01*
X98170Y143814D01*
X99176Y146241D01*
X100707Y147773D01*
X100724Y147793D01*
X100744Y147810D01*
X100832Y147930D01*
X100924Y148046D01*
X100935Y148070D01*
X100951Y148091D01*
X101009Y148227D01*
X101073Y148361D01*
X101078Y148387D01*
X101089Y148411D01*
X101115Y148557D01*
X101146Y148702D01*
X101146Y148728D01*
X101151Y148754D01*
X101143Y148902D01*
X101140Y149050D01*
X101134Y149076D01*
X101133Y149102D01*
X101092Y149244D01*
X101055Y149388D01*
X101043Y149411D01*
X101036Y149437D01*
X100964Y149566D01*
X100896Y149698D01*
X100879Y149718D01*
X100866Y149741D01*
X100707Y149927D01*
X99176Y151459D01*
X98170Y153886D01*
X98170Y156514D01*
X99176Y158941D01*
X101034Y160799D01*
X103461Y161805D01*
X106089Y161805D01*
X108516Y160799D01*
X110374Y158941D01*
X111380Y156514D01*
X111380Y153886D01*
X110374Y151459D01*
X108843Y149927D01*
X108826Y149907D01*
X108806Y149890D01*
X108718Y149770D01*
X108626Y149654D01*
X108615Y149630D01*
X108599Y149609D01*
X108540Y149473D01*
X108477Y149339D01*
X108472Y149313D01*
X108461Y149289D01*
X108435Y149143D01*
X108404Y148998D01*
X108404Y148972D01*
X108399Y148946D01*
X108407Y148798D01*
X108410Y148650D01*
X108416Y148624D01*
X108417Y148598D01*
X108459Y148456D01*
X108495Y148312D01*
X108507Y148289D01*
X108514Y148263D01*
X108586Y148134D01*
X108654Y148002D01*
X108671Y147982D01*
X108684Y147959D01*
X108843Y147773D01*
X110374Y146241D01*
X111380Y143814D01*
X111380Y141186D01*
X110374Y138759D01*
X108516Y136901D01*
X106089Y135895D01*
X103461Y135895D01*
G37*
%LPD*%
%LPC*%
G36*
X239036Y97970D02*
X239036Y97970D01*
X236609Y98976D01*
X234751Y100834D01*
X233745Y103261D01*
X233745Y103472D01*
X233742Y103498D01*
X233744Y103524D01*
X233722Y103671D01*
X233705Y103818D01*
X233697Y103843D01*
X233693Y103869D01*
X233638Y104007D01*
X233588Y104146D01*
X233574Y104168D01*
X233564Y104193D01*
X233479Y104314D01*
X233399Y104439D01*
X233380Y104457D01*
X233365Y104479D01*
X233255Y104578D01*
X233148Y104681D01*
X233126Y104695D01*
X233106Y104712D01*
X232976Y104784D01*
X232849Y104860D01*
X232824Y104868D01*
X232801Y104881D01*
X232658Y104921D01*
X232517Y104966D01*
X232491Y104968D01*
X232466Y104976D01*
X232222Y104995D01*
X231811Y104995D01*
X229384Y106001D01*
X227526Y107859D01*
X226520Y110286D01*
X226520Y112914D01*
X227526Y115341D01*
X229384Y117199D01*
X231811Y118205D01*
X234439Y118205D01*
X236866Y117199D01*
X238724Y115341D01*
X239730Y112914D01*
X239730Y112703D01*
X239733Y112677D01*
X239731Y112651D01*
X239753Y112504D01*
X239770Y112357D01*
X239778Y112332D01*
X239782Y112306D01*
X239837Y112168D01*
X239887Y112029D01*
X239901Y112007D01*
X239911Y111982D01*
X239996Y111861D01*
X240076Y111736D01*
X240095Y111718D01*
X240110Y111696D01*
X240220Y111597D01*
X240327Y111494D01*
X240349Y111480D01*
X240369Y111463D01*
X240499Y111391D01*
X240626Y111315D01*
X240651Y111307D01*
X240674Y111294D01*
X240817Y111254D01*
X240958Y111209D01*
X240984Y111207D01*
X241009Y111199D01*
X241253Y111180D01*
X241664Y111180D01*
X244091Y110174D01*
X245949Y108316D01*
X246955Y105889D01*
X246955Y103261D01*
X245949Y100834D01*
X244091Y98976D01*
X241664Y97970D01*
X239036Y97970D01*
G37*
%LPD*%
%LPC*%
G36*
X182636Y112695D02*
X182636Y112695D01*
X180209Y113701D01*
X178351Y115559D01*
X177345Y117986D01*
X177345Y120614D01*
X178351Y123041D01*
X179463Y124153D01*
X179510Y124213D01*
X179565Y124266D01*
X179618Y124349D01*
X179679Y124426D01*
X179712Y124495D01*
X179753Y124560D01*
X179786Y124652D01*
X179828Y124741D01*
X179844Y124816D01*
X179870Y124888D01*
X179881Y124986D01*
X179901Y125082D01*
X179900Y125158D01*
X179909Y125234D01*
X179897Y125332D01*
X179895Y125430D01*
X179877Y125504D01*
X179868Y125581D01*
X179845Y125650D01*
X179845Y128314D01*
X180851Y130741D01*
X182709Y132599D01*
X185136Y133605D01*
X187764Y133605D01*
X190191Y132599D01*
X192049Y130741D01*
X193055Y128314D01*
X193055Y125686D01*
X192049Y123259D01*
X190937Y122147D01*
X190890Y122087D01*
X190835Y122034D01*
X190782Y121951D01*
X190721Y121874D01*
X190688Y121805D01*
X190647Y121740D01*
X190614Y121648D01*
X190572Y121559D01*
X190556Y121484D01*
X190530Y121412D01*
X190519Y121314D01*
X190499Y121218D01*
X190500Y121142D01*
X190491Y121066D01*
X190503Y120968D01*
X190505Y120870D01*
X190523Y120796D01*
X190532Y120719D01*
X190555Y120650D01*
X190555Y117986D01*
X189549Y115559D01*
X187691Y113701D01*
X185264Y112695D01*
X182636Y112695D01*
G37*
%LPD*%
%LPC*%
G36*
X195217Y79919D02*
X195217Y79919D01*
X192431Y81073D01*
X190298Y83206D01*
X189144Y85992D01*
X189144Y89008D01*
X190298Y91794D01*
X192431Y93927D01*
X195217Y95081D01*
X198233Y95081D01*
X201019Y93927D01*
X203152Y91794D01*
X204306Y89008D01*
X204306Y85992D01*
X203152Y83206D01*
X201019Y81073D01*
X198233Y79919D01*
X195217Y79919D01*
G37*
%LPD*%
%LPC*%
G36*
X130217Y79919D02*
X130217Y79919D01*
X127431Y81073D01*
X125298Y83206D01*
X124144Y85992D01*
X124144Y89008D01*
X125298Y91794D01*
X127431Y93927D01*
X130217Y95081D01*
X133233Y95081D01*
X136019Y93927D01*
X138152Y91794D01*
X139306Y89008D01*
X139306Y85992D01*
X138152Y83206D01*
X136019Y81073D01*
X133233Y79919D01*
X130217Y79919D01*
G37*
%LPD*%
D10*
X131725Y27500D03*
X131725Y47500D03*
X131725Y67500D03*
X131725Y87500D03*
X196725Y27500D03*
X196725Y47500D03*
X196725Y67500D03*
X196725Y87500D03*
D11*
X104775Y155200D03*
X104775Y142500D03*
X183950Y147625D03*
D10*
X217500Y18400D03*
X297500Y92500D03*
X297500Y82500D03*
X297500Y72500D03*
X297500Y62500D03*
X297500Y52500D03*
X297500Y42500D03*
X297500Y32500D03*
X90000Y97500D03*
X110000Y45000D03*
X110000Y30000D03*
X110000Y15000D03*
X65000Y67500D03*
X65000Y82500D03*
X65000Y97500D03*
X65000Y52500D03*
X65000Y37500D03*
X65000Y22500D03*
D11*
X107475Y104575D03*
X240350Y104575D03*
X109975Y111600D03*
X233125Y111600D03*
D12*
X25000Y25000D03*
X290000Y152500D03*
D11*
X113625Y127000D03*
X186450Y127000D03*
X111800Y119300D03*
X183950Y119300D03*
M02*
