G04 EAGLE Gerber RS-274X export*
G75*
%MOMM*%
%FSLAX34Y34*%
%LPD*%
%INBottom Copper*%
%IPPOS*%
%AMOC8*
5,1,8,0,0,1.08239X$1,22.5*%
G01*
%ADD10C,0.750000*%
%ADD11C,0.508000*%
%ADD12C,0.703200*%
%ADD13C,0.304800*%
%ADD14C,4.750000*%

G36*
X117512Y4829D02*
X117512Y4829D01*
X117530Y4827D01*
X117712Y4848D01*
X117895Y4867D01*
X117912Y4872D01*
X117929Y4874D01*
X118104Y4931D01*
X118280Y4985D01*
X118295Y4993D01*
X118312Y4999D01*
X118472Y5089D01*
X118634Y5177D01*
X118647Y5188D01*
X118663Y5197D01*
X118802Y5317D01*
X118943Y5434D01*
X118954Y5448D01*
X118968Y5460D01*
X119080Y5605D01*
X119195Y5748D01*
X119203Y5764D01*
X119214Y5778D01*
X119296Y5943D01*
X119381Y6105D01*
X119386Y6122D01*
X119394Y6138D01*
X119441Y6317D01*
X119492Y6492D01*
X119494Y6510D01*
X119498Y6527D01*
X119525Y6858D01*
X119525Y80006D01*
X119525Y80013D01*
X119525Y80019D01*
X119523Y80036D01*
X119525Y80059D01*
X119503Y80233D01*
X119485Y80407D01*
X119478Y80432D01*
X119474Y80459D01*
X119419Y80624D01*
X119367Y80792D01*
X119354Y80815D01*
X119346Y80840D01*
X119259Y80992D01*
X119175Y81146D01*
X119158Y81166D01*
X119145Y81189D01*
X118930Y81442D01*
X92031Y108341D01*
X92031Y132969D01*
X100315Y132969D01*
X100319Y132969D01*
X100324Y132969D01*
X100519Y132989D01*
X100715Y133009D01*
X100720Y133010D01*
X100724Y133010D01*
X100913Y133069D01*
X101100Y133127D01*
X101104Y133129D01*
X101109Y133130D01*
X101282Y133225D01*
X101454Y133319D01*
X101458Y133321D01*
X101462Y133324D01*
X101614Y133452D01*
X101764Y133576D01*
X101766Y133580D01*
X101770Y133583D01*
X101892Y133736D01*
X102016Y133890D01*
X102018Y133894D01*
X102021Y133898D01*
X102111Y134074D01*
X102201Y134247D01*
X102203Y134252D01*
X102205Y134256D01*
X102259Y134446D01*
X102313Y134634D01*
X102313Y134639D01*
X102314Y134643D01*
X102329Y134838D01*
X102346Y135036D01*
X102345Y135040D01*
X102345Y135045D01*
X102322Y135240D01*
X102299Y135435D01*
X102297Y135440D01*
X102297Y135444D01*
X102235Y135630D01*
X102174Y135818D01*
X102172Y135822D01*
X102170Y135826D01*
X102074Y135996D01*
X101976Y136169D01*
X101973Y136172D01*
X101971Y136176D01*
X101840Y136326D01*
X101713Y136474D01*
X101709Y136476D01*
X101706Y136480D01*
X101548Y136602D01*
X101395Y136720D01*
X101391Y136722D01*
X101387Y136725D01*
X101092Y136877D01*
X101034Y136901D01*
X99176Y138759D01*
X98170Y141186D01*
X98170Y143814D01*
X99176Y146241D01*
X100348Y147414D01*
X100360Y147428D01*
X100373Y147439D01*
X100487Y147583D01*
X100603Y147725D01*
X100612Y147741D01*
X100623Y147755D01*
X100706Y147919D01*
X100792Y148081D01*
X100797Y148098D01*
X100805Y148114D01*
X100854Y148291D01*
X100907Y148467D01*
X100908Y148485D01*
X100913Y148502D01*
X100926Y148685D01*
X100943Y148868D01*
X100941Y148886D01*
X100942Y148903D01*
X100919Y149085D01*
X100900Y149268D01*
X100894Y149285D01*
X100892Y149303D01*
X100834Y149477D01*
X100778Y149652D01*
X100769Y149668D01*
X100764Y149684D01*
X100672Y149843D01*
X100583Y150004D01*
X100572Y150018D01*
X100563Y150033D01*
X100348Y150286D01*
X99176Y151459D01*
X98170Y153886D01*
X98170Y156514D01*
X99176Y158941D01*
X101034Y160799D01*
X103461Y161805D01*
X106089Y161805D01*
X108516Y160799D01*
X110374Y158941D01*
X111380Y156514D01*
X111380Y153886D01*
X110374Y151459D01*
X109202Y150286D01*
X109191Y150273D01*
X109177Y150261D01*
X109063Y150116D01*
X108947Y149975D01*
X108938Y149959D01*
X108927Y149945D01*
X108844Y149781D01*
X108758Y149619D01*
X108753Y149602D01*
X108745Y149586D01*
X108696Y149409D01*
X108643Y149233D01*
X108642Y149215D01*
X108637Y149198D01*
X108624Y149015D01*
X108607Y148832D01*
X108609Y148814D01*
X108608Y148797D01*
X108631Y148615D01*
X108650Y148432D01*
X108656Y148415D01*
X108658Y148397D01*
X108716Y148224D01*
X108772Y148048D01*
X108781Y148032D01*
X108786Y148016D01*
X108878Y147857D01*
X108967Y147696D01*
X108978Y147682D01*
X108987Y147667D01*
X109202Y147414D01*
X110374Y146241D01*
X111380Y143814D01*
X111380Y141186D01*
X110374Y138759D01*
X108516Y136901D01*
X108458Y136877D01*
X108454Y136875D01*
X108450Y136873D01*
X108277Y136780D01*
X108103Y136687D01*
X108100Y136684D01*
X108096Y136681D01*
X107946Y136557D01*
X107793Y136430D01*
X107790Y136427D01*
X107786Y136424D01*
X107664Y136272D01*
X107539Y136117D01*
X107537Y136113D01*
X107534Y136110D01*
X107444Y135937D01*
X107352Y135761D01*
X107351Y135757D01*
X107349Y135753D01*
X107294Y135562D01*
X107239Y135375D01*
X107239Y135370D01*
X107237Y135366D01*
X107221Y135166D01*
X107204Y134973D01*
X107205Y134969D01*
X107204Y134964D01*
X107227Y134768D01*
X107249Y134573D01*
X107251Y134569D01*
X107251Y134565D01*
X107312Y134377D01*
X107373Y134190D01*
X107375Y134186D01*
X107376Y134182D01*
X107472Y134011D01*
X107569Y133839D01*
X107572Y133835D01*
X107574Y133831D01*
X107701Y133684D01*
X107831Y133533D01*
X107834Y133530D01*
X107837Y133527D01*
X107992Y133407D01*
X108148Y133284D01*
X108152Y133282D01*
X108155Y133280D01*
X108334Y133191D01*
X108507Y133104D01*
X108512Y133103D01*
X108516Y133100D01*
X108711Y133048D01*
X108896Y132997D01*
X108900Y132997D01*
X108905Y132996D01*
X109235Y132969D01*
X110372Y132969D01*
X110403Y132972D01*
X110434Y132970D01*
X110604Y132992D01*
X110772Y133009D01*
X110802Y133018D01*
X110833Y133022D01*
X111149Y133123D01*
X112311Y133605D01*
X114939Y133605D01*
X116101Y133123D01*
X116131Y133114D01*
X116159Y133100D01*
X116323Y133056D01*
X116486Y133007D01*
X116517Y133004D01*
X116547Y132996D01*
X116878Y132969D01*
X183197Y132969D01*
X183228Y132972D01*
X183259Y132970D01*
X183429Y132992D01*
X183597Y133009D01*
X183627Y133018D01*
X183658Y133022D01*
X183974Y133123D01*
X185136Y133605D01*
X187764Y133605D01*
X188926Y133123D01*
X188956Y133114D01*
X188984Y133100D01*
X189148Y133056D01*
X189311Y133007D01*
X189342Y133004D01*
X189372Y132996D01*
X189703Y132969D01*
X247969Y132969D01*
X247969Y82031D01*
X210956Y82031D01*
X210938Y82029D01*
X210920Y82031D01*
X210738Y82010D01*
X210555Y81991D01*
X210538Y81986D01*
X210521Y81984D01*
X210346Y81927D01*
X210170Y81873D01*
X210155Y81865D01*
X210138Y81859D01*
X209978Y81769D01*
X209816Y81681D01*
X209803Y81670D01*
X209787Y81661D01*
X209648Y81541D01*
X209507Y81424D01*
X209496Y81410D01*
X209482Y81398D01*
X209370Y81253D01*
X209255Y81110D01*
X209247Y81094D01*
X209236Y81080D01*
X209154Y80915D01*
X209069Y80753D01*
X209064Y80736D01*
X209056Y80719D01*
X209008Y80541D01*
X208958Y80366D01*
X208956Y80348D01*
X208952Y80331D01*
X208925Y80000D01*
X208925Y6858D01*
X208927Y6840D01*
X208925Y6822D01*
X208946Y6640D01*
X208965Y6457D01*
X208970Y6440D01*
X208972Y6423D01*
X209029Y6248D01*
X209083Y6072D01*
X209091Y6057D01*
X209097Y6040D01*
X209187Y5880D01*
X209275Y5718D01*
X209286Y5705D01*
X209295Y5689D01*
X209415Y5550D01*
X209532Y5409D01*
X209546Y5398D01*
X209558Y5384D01*
X209703Y5272D01*
X209846Y5157D01*
X209862Y5149D01*
X209876Y5138D01*
X210041Y5056D01*
X210203Y4971D01*
X210220Y4966D01*
X210236Y4958D01*
X210415Y4911D01*
X210590Y4860D01*
X210608Y4858D01*
X210625Y4854D01*
X210956Y4827D01*
X308000Y4827D01*
X308018Y4829D01*
X308036Y4827D01*
X308218Y4848D01*
X308401Y4867D01*
X308418Y4872D01*
X308435Y4874D01*
X308610Y4931D01*
X308786Y4985D01*
X308801Y4993D01*
X308818Y4999D01*
X308978Y5089D01*
X309140Y5177D01*
X309153Y5188D01*
X309169Y5197D01*
X309308Y5317D01*
X309449Y5434D01*
X309460Y5448D01*
X309474Y5460D01*
X309586Y5605D01*
X309701Y5748D01*
X309709Y5764D01*
X309720Y5778D01*
X309802Y5943D01*
X309887Y6105D01*
X309892Y6122D01*
X309900Y6138D01*
X309947Y6317D01*
X309998Y6492D01*
X310000Y6510D01*
X310004Y6527D01*
X310031Y6858D01*
X310031Y128429D01*
X310017Y128575D01*
X310010Y128721D01*
X309997Y128775D01*
X309991Y128830D01*
X309948Y128970D01*
X309913Y129111D01*
X309890Y129162D01*
X309873Y129215D01*
X309804Y129343D01*
X309741Y129475D01*
X309708Y129520D01*
X309681Y129569D01*
X309588Y129681D01*
X309501Y129798D01*
X309459Y129835D01*
X309424Y129878D01*
X309310Y129970D01*
X309201Y130067D01*
X309153Y130096D01*
X309110Y130130D01*
X308980Y130198D01*
X308854Y130272D01*
X308802Y130290D01*
X308753Y130316D01*
X308612Y130356D01*
X308474Y130404D01*
X308419Y130412D01*
X308366Y130427D01*
X308220Y130439D01*
X308075Y130459D01*
X308020Y130456D01*
X307964Y130460D01*
X307819Y130443D01*
X307673Y130434D01*
X307620Y130420D01*
X307565Y130413D01*
X307426Y130368D01*
X307284Y130330D01*
X307227Y130303D01*
X307182Y130288D01*
X307109Y130247D01*
X306984Y130188D01*
X300736Y126581D01*
X293662Y124685D01*
X286338Y124685D01*
X279264Y126581D01*
X272921Y130243D01*
X267743Y135421D01*
X264081Y141764D01*
X262185Y148838D01*
X262185Y156162D01*
X264081Y163236D01*
X267744Y169581D01*
X267861Y169726D01*
X267983Y169875D01*
X267987Y169883D01*
X267993Y169890D01*
X268081Y170061D01*
X268171Y170231D01*
X268174Y170239D01*
X268178Y170247D01*
X268231Y170433D01*
X268286Y170617D01*
X268287Y170626D01*
X268289Y170634D01*
X268305Y170826D01*
X268323Y171018D01*
X268322Y171027D01*
X268322Y171036D01*
X268300Y171225D01*
X268279Y171418D01*
X268276Y171427D01*
X268275Y171435D01*
X268216Y171617D01*
X268158Y171802D01*
X268153Y171810D01*
X268151Y171818D01*
X268056Y171987D01*
X267963Y172154D01*
X267957Y172161D01*
X267953Y172169D01*
X267827Y172315D01*
X267702Y172461D01*
X267695Y172467D01*
X267690Y172474D01*
X267538Y172591D01*
X267386Y172711D01*
X267378Y172715D01*
X267371Y172720D01*
X267199Y172806D01*
X267028Y172893D01*
X267019Y172896D01*
X267011Y172900D01*
X266824Y172950D01*
X266640Y173001D01*
X266631Y173002D01*
X266622Y173004D01*
X266291Y173031D01*
X58331Y173031D01*
X58313Y173029D01*
X58295Y173031D01*
X58113Y173010D01*
X57930Y172991D01*
X57913Y172986D01*
X57896Y172984D01*
X57721Y172927D01*
X57545Y172873D01*
X57530Y172865D01*
X57513Y172859D01*
X57353Y172769D01*
X57191Y172681D01*
X57178Y172670D01*
X57162Y172661D01*
X57023Y172541D01*
X56882Y172424D01*
X56871Y172410D01*
X56857Y172398D01*
X56745Y172253D01*
X56630Y172110D01*
X56622Y172094D01*
X56611Y172080D01*
X56529Y171915D01*
X56444Y171753D01*
X56439Y171736D01*
X56431Y171720D01*
X56384Y171541D01*
X56333Y171366D01*
X56331Y171348D01*
X56327Y171331D01*
X56300Y171000D01*
X56300Y103465D01*
X55584Y101738D01*
X55564Y101717D01*
X55547Y101697D01*
X55527Y101679D01*
X55419Y101541D01*
X55309Y101406D01*
X55296Y101382D01*
X55280Y101361D01*
X55202Y101204D01*
X55120Y101050D01*
X55112Y101025D01*
X55100Y101000D01*
X55055Y100831D01*
X55005Y100664D01*
X55003Y100638D01*
X54996Y100612D01*
X54969Y100281D01*
X54969Y6858D01*
X54971Y6840D01*
X54969Y6822D01*
X54990Y6640D01*
X55009Y6457D01*
X55014Y6440D01*
X55016Y6423D01*
X55073Y6248D01*
X55127Y6072D01*
X55135Y6057D01*
X55141Y6040D01*
X55231Y5880D01*
X55319Y5718D01*
X55330Y5705D01*
X55339Y5689D01*
X55459Y5550D01*
X55576Y5409D01*
X55590Y5398D01*
X55602Y5384D01*
X55747Y5272D01*
X55890Y5157D01*
X55906Y5149D01*
X55920Y5138D01*
X56085Y5056D01*
X56247Y4971D01*
X56264Y4966D01*
X56281Y4958D01*
X56459Y4911D01*
X56634Y4860D01*
X56652Y4858D01*
X56669Y4854D01*
X57000Y4827D01*
X117494Y4827D01*
X117512Y4829D01*
G37*
G36*
X139290Y-623D02*
X139290Y-623D01*
X139356Y-621D01*
X139399Y-603D01*
X139446Y-595D01*
X139503Y-561D01*
X139563Y-536D01*
X139598Y-505D01*
X139639Y-480D01*
X139681Y-429D01*
X139729Y-385D01*
X139751Y-343D01*
X139780Y-306D01*
X139801Y-244D01*
X139832Y-185D01*
X139840Y-131D01*
X139852Y-94D01*
X139851Y-54D01*
X139859Y0D01*
X139859Y86866D01*
X188591Y86866D01*
X188591Y0D01*
X188602Y-65D01*
X188604Y-131D01*
X188622Y-174D01*
X188630Y-221D01*
X188664Y-278D01*
X188689Y-338D01*
X188720Y-373D01*
X188745Y-414D01*
X188796Y-456D01*
X188840Y-504D01*
X188882Y-526D01*
X188919Y-555D01*
X188981Y-576D01*
X189040Y-607D01*
X189094Y-615D01*
X189131Y-627D01*
X189171Y-626D01*
X189225Y-634D01*
X204225Y-634D01*
X204290Y-623D01*
X204356Y-621D01*
X204399Y-603D01*
X204446Y-595D01*
X204503Y-561D01*
X204563Y-536D01*
X204598Y-505D01*
X204639Y-480D01*
X204681Y-429D01*
X204729Y-385D01*
X204751Y-343D01*
X204780Y-306D01*
X204801Y-244D01*
X204832Y-185D01*
X204840Y-131D01*
X204852Y-94D01*
X204851Y-54D01*
X204859Y0D01*
X204859Y97500D01*
X204848Y97565D01*
X204846Y97631D01*
X204828Y97674D01*
X204820Y97721D01*
X204786Y97778D01*
X204761Y97838D01*
X204730Y97873D01*
X204705Y97914D01*
X204654Y97956D01*
X204610Y98004D01*
X204568Y98026D01*
X204531Y98055D01*
X204469Y98076D01*
X204410Y98107D01*
X204356Y98115D01*
X204319Y98127D01*
X204279Y98126D01*
X204225Y98134D01*
X124225Y98134D01*
X124160Y98123D01*
X124094Y98121D01*
X124051Y98103D01*
X124004Y98095D01*
X123947Y98061D01*
X123887Y98036D01*
X123852Y98005D01*
X123811Y97980D01*
X123770Y97929D01*
X123721Y97885D01*
X123699Y97843D01*
X123670Y97806D01*
X123649Y97744D01*
X123618Y97685D01*
X123610Y97631D01*
X123598Y97594D01*
X123599Y97554D01*
X123591Y97500D01*
X123591Y0D01*
X123602Y-65D01*
X123604Y-131D01*
X123622Y-174D01*
X123630Y-221D01*
X123664Y-278D01*
X123689Y-338D01*
X123720Y-373D01*
X123745Y-414D01*
X123796Y-456D01*
X123840Y-504D01*
X123882Y-526D01*
X123919Y-555D01*
X123981Y-576D01*
X124040Y-607D01*
X124094Y-615D01*
X124131Y-627D01*
X124171Y-626D01*
X124225Y-634D01*
X139225Y-634D01*
X139290Y-623D01*
G37*
D10*
X131725Y27500D03*
X131725Y47500D03*
X131725Y67500D03*
X131725Y87500D03*
X196725Y27500D03*
X196725Y47500D03*
X196725Y67500D03*
X196725Y87500D03*
D11*
X104775Y155200D03*
X104775Y142500D03*
X183950Y147625D03*
D12*
X217500Y18400D03*
X297500Y92500D03*
X297500Y82500D03*
X297500Y72500D03*
X297500Y62500D03*
X297500Y52500D03*
X297500Y42500D03*
X297500Y32500D03*
X90000Y97500D03*
X110000Y45000D03*
X110000Y30000D03*
X110000Y15000D03*
X65000Y67500D03*
X65000Y82500D03*
X65000Y97500D03*
X65000Y52500D03*
X65000Y37500D03*
X65000Y22500D03*
D11*
X107475Y104575D03*
D13*
X240350Y104575D01*
D11*
X240350Y104575D03*
X109975Y111600D03*
D13*
X233125Y111600D01*
D11*
X233125Y111600D03*
D14*
X25000Y25000D03*
X290000Y152500D03*
D11*
X113625Y127000D03*
D13*
X186450Y127000D01*
D11*
X186450Y127000D03*
X111800Y119300D03*
D13*
X183950Y119300D01*
D11*
X183950Y119300D03*
M02*
