G04 EAGLE Gerber RS-274X export*
G75*
%MOMM*%
%FSLAX34Y34*%
%LPD*%
%INSilkscreen Top*%
%IPPOS*%
%AMOC8*
5,1,8,0,0,1.08239X$1,22.5*%
G01*
%ADD10C,0.127000*%
%ADD11C,0.076200*%
%ADD12C,0.025400*%


D10*
X82473Y11423D02*
X75609Y11423D01*
X75609Y9135D02*
X75609Y13711D01*
X75609Y17763D02*
X75609Y20051D01*
X75609Y17763D02*
X76753Y16619D01*
X81329Y16619D01*
X82473Y17763D01*
X82473Y20051D01*
X81329Y21195D01*
X76753Y21195D01*
X75609Y20051D01*
X75609Y27535D02*
X76753Y28679D01*
X75609Y27535D02*
X75609Y25247D01*
X76753Y24103D01*
X77897Y24103D01*
X79041Y25247D01*
X79041Y27535D01*
X80185Y28679D01*
X81329Y28679D01*
X82473Y27535D01*
X82473Y25247D01*
X81329Y24103D01*
X82473Y31587D02*
X77897Y31587D01*
X75609Y33875D01*
X77897Y36163D01*
X82473Y36163D01*
X79041Y36163D02*
X79041Y31587D01*
X82473Y46556D02*
X75609Y46556D01*
X75609Y49988D01*
X76753Y51132D01*
X77897Y51132D01*
X79041Y49988D01*
X80185Y51132D01*
X81329Y51132D01*
X82473Y49988D01*
X82473Y46556D01*
X79041Y46556D02*
X79041Y49988D01*
X77897Y54040D02*
X82473Y54040D01*
X80185Y54040D02*
X77897Y56328D01*
X77897Y57472D01*
X75609Y64853D02*
X82473Y64853D01*
X82473Y61421D01*
X81329Y60277D01*
X79041Y60277D01*
X77897Y61421D01*
X77897Y64853D01*
X75609Y75245D02*
X75609Y79821D01*
X75609Y75245D02*
X79041Y75245D01*
X77897Y77533D01*
X77897Y78677D01*
X79041Y79821D01*
X81329Y79821D01*
X82473Y78677D01*
X82473Y76389D01*
X81329Y75245D01*
X81329Y82729D02*
X82473Y82729D01*
X81329Y82729D02*
X81329Y83873D01*
X82473Y83873D01*
X82473Y82729D01*
X81329Y86471D02*
X76753Y86471D01*
X75609Y87615D01*
X75609Y89903D01*
X76753Y91047D01*
X81329Y91047D01*
X82473Y89903D01*
X82473Y87615D01*
X81329Y86471D01*
X76753Y91047D01*
X88945Y13711D02*
X87801Y12567D01*
X87801Y10279D01*
X88945Y9135D01*
X93521Y9135D01*
X94665Y10279D01*
X94665Y12567D01*
X93521Y13711D01*
X94665Y16619D02*
X90089Y16619D01*
X87801Y18907D01*
X90089Y21195D01*
X94665Y21195D01*
X91233Y21195D02*
X91233Y16619D01*
X94665Y24103D02*
X87801Y24103D01*
X91233Y24103D02*
X91233Y28679D01*
X87801Y28679D02*
X94665Y28679D01*
X91233Y31587D02*
X91233Y36163D01*
X94665Y39072D02*
X94665Y43648D01*
X94665Y39072D02*
X90089Y43648D01*
X88945Y43648D01*
X87801Y42504D01*
X87801Y40216D01*
X88945Y39072D01*
X93521Y46556D02*
X94665Y46556D01*
X93521Y46556D02*
X93521Y47700D01*
X94665Y47700D01*
X94665Y46556D01*
X90089Y50298D02*
X87801Y52586D01*
X94665Y52586D01*
X94665Y50298D02*
X94665Y54874D01*
X94665Y57782D02*
X93521Y57782D01*
X93521Y58926D01*
X94665Y58926D01*
X94665Y57782D01*
X90089Y61524D02*
X87801Y63812D01*
X94665Y63812D01*
X94665Y61524D02*
X94665Y66100D01*
X88945Y69008D02*
X87801Y70152D01*
X87801Y72440D01*
X88945Y73584D01*
X90089Y73584D01*
X91233Y72440D01*
X92377Y73584D01*
X93521Y73584D01*
X94665Y72440D01*
X94665Y70152D01*
X93521Y69008D01*
X92377Y69008D01*
X91233Y70152D01*
X90089Y69008D01*
X88945Y69008D01*
X91233Y70152D02*
X91233Y72440D01*
D11*
X128941Y127672D02*
X127374Y129240D01*
X124238Y129240D01*
X122671Y127672D01*
X122671Y121401D01*
X124238Y119834D01*
X127374Y119834D01*
X128941Y121401D01*
X132026Y126104D02*
X135161Y129240D01*
X135161Y119834D01*
X132026Y119834D02*
X138297Y119834D01*
D10*
X312500Y112500D02*
X312500Y12500D01*
X270000Y12500D01*
X270000Y22500D01*
X270000Y112500D02*
X312500Y112500D01*
X270000Y112500D02*
X270000Y102500D01*
X111230Y67500D02*
X111232Y67571D01*
X111238Y67642D01*
X111248Y67713D01*
X111262Y67783D01*
X111280Y67852D01*
X111301Y67919D01*
X111327Y67986D01*
X111356Y68051D01*
X111388Y68114D01*
X111425Y68176D01*
X111464Y68235D01*
X111507Y68292D01*
X111553Y68346D01*
X111602Y68398D01*
X111654Y68447D01*
X111708Y68493D01*
X111765Y68536D01*
X111824Y68575D01*
X111886Y68612D01*
X111949Y68644D01*
X112014Y68673D01*
X112081Y68699D01*
X112148Y68720D01*
X112217Y68738D01*
X112287Y68752D01*
X112358Y68762D01*
X112429Y68768D01*
X112500Y68770D01*
X112571Y68768D01*
X112642Y68762D01*
X112713Y68752D01*
X112783Y68738D01*
X112852Y68720D01*
X112919Y68699D01*
X112986Y68673D01*
X113051Y68644D01*
X113114Y68612D01*
X113176Y68575D01*
X113235Y68536D01*
X113292Y68493D01*
X113346Y68447D01*
X113398Y68398D01*
X113447Y68346D01*
X113493Y68292D01*
X113536Y68235D01*
X113575Y68176D01*
X113612Y68114D01*
X113644Y68051D01*
X113673Y67986D01*
X113699Y67919D01*
X113720Y67852D01*
X113738Y67783D01*
X113752Y67713D01*
X113762Y67642D01*
X113768Y67571D01*
X113770Y67500D01*
X113768Y67429D01*
X113762Y67358D01*
X113752Y67287D01*
X113738Y67217D01*
X113720Y67148D01*
X113699Y67081D01*
X113673Y67014D01*
X113644Y66949D01*
X113612Y66886D01*
X113575Y66824D01*
X113536Y66765D01*
X113493Y66708D01*
X113447Y66654D01*
X113398Y66602D01*
X113346Y66553D01*
X113292Y66507D01*
X113235Y66464D01*
X113176Y66425D01*
X113114Y66388D01*
X113051Y66356D01*
X112986Y66327D01*
X112919Y66301D01*
X112852Y66280D01*
X112783Y66262D01*
X112713Y66248D01*
X112642Y66238D01*
X112571Y66232D01*
X112500Y66230D01*
X112429Y66232D01*
X112358Y66238D01*
X112287Y66248D01*
X112217Y66262D01*
X112148Y66280D01*
X112081Y66301D01*
X112014Y66327D01*
X111949Y66356D01*
X111886Y66388D01*
X111824Y66425D01*
X111765Y66464D01*
X111708Y66507D01*
X111654Y66553D01*
X111602Y66602D01*
X111553Y66654D01*
X111507Y66708D01*
X111464Y66765D01*
X111425Y66824D01*
X111388Y66886D01*
X111356Y66949D01*
X111327Y67014D01*
X111301Y67081D01*
X111280Y67148D01*
X111262Y67217D01*
X111248Y67287D01*
X111238Y67358D01*
X111232Y67429D01*
X111230Y67500D01*
X112246Y67500D02*
X112248Y67531D01*
X112254Y67562D01*
X112263Y67592D01*
X112276Y67620D01*
X112293Y67647D01*
X112312Y67671D01*
X112335Y67693D01*
X112360Y67712D01*
X112387Y67727D01*
X112416Y67740D01*
X112446Y67748D01*
X112477Y67753D01*
X112508Y67754D01*
X112539Y67751D01*
X112570Y67744D01*
X112599Y67734D01*
X112627Y67720D01*
X112653Y67703D01*
X112677Y67682D01*
X112698Y67659D01*
X112716Y67634D01*
X112731Y67606D01*
X112742Y67577D01*
X112750Y67547D01*
X112754Y67516D01*
X112754Y67484D01*
X112750Y67453D01*
X112742Y67423D01*
X112731Y67394D01*
X112716Y67366D01*
X112698Y67341D01*
X112677Y67318D01*
X112653Y67297D01*
X112627Y67280D01*
X112599Y67266D01*
X112570Y67256D01*
X112539Y67249D01*
X112508Y67246D01*
X112477Y67247D01*
X112446Y67252D01*
X112416Y67260D01*
X112387Y67273D01*
X112360Y67288D01*
X112335Y67307D01*
X112312Y67329D01*
X112293Y67353D01*
X112276Y67380D01*
X112263Y67408D01*
X112254Y67438D01*
X112248Y67469D01*
X112246Y67500D01*
X110315Y67500D02*
X110317Y67593D01*
X110323Y67687D01*
X110333Y67779D01*
X110347Y67872D01*
X110365Y67963D01*
X110386Y68054D01*
X110412Y68144D01*
X110442Y68233D01*
X110475Y68320D01*
X110512Y68406D01*
X110552Y68490D01*
X110596Y68572D01*
X110644Y68653D01*
X110695Y68731D01*
X110749Y68807D01*
X110806Y68881D01*
X110867Y68952D01*
X110930Y69020D01*
X110997Y69086D01*
X111066Y69149D01*
X111138Y69208D01*
X111212Y69265D01*
X111289Y69318D01*
X111367Y69368D01*
X111448Y69415D01*
X111531Y69458D01*
X111616Y69498D01*
X111702Y69534D01*
X111789Y69566D01*
X111878Y69595D01*
X111968Y69619D01*
X112059Y69640D01*
X112151Y69657D01*
X112244Y69670D01*
X112337Y69679D01*
X112430Y69684D01*
X112523Y69685D01*
X112617Y69682D01*
X112710Y69675D01*
X112803Y69664D01*
X112895Y69649D01*
X112986Y69630D01*
X113077Y69607D01*
X113166Y69581D01*
X113255Y69551D01*
X113342Y69516D01*
X113427Y69479D01*
X113511Y69437D01*
X113592Y69392D01*
X113672Y69344D01*
X113750Y69292D01*
X113826Y69237D01*
X113899Y69179D01*
X113969Y69118D01*
X114037Y69053D01*
X114102Y68986D01*
X114164Y68916D01*
X114223Y68844D01*
X114279Y68769D01*
X114331Y68692D01*
X114380Y68613D01*
X114426Y68531D01*
X114469Y68448D01*
X114507Y68363D01*
X114542Y68276D01*
X114574Y68189D01*
X114601Y68099D01*
X114625Y68009D01*
X114645Y67918D01*
X114661Y67826D01*
X114673Y67733D01*
X114681Y67640D01*
X114685Y67547D01*
X114685Y67453D01*
X114681Y67360D01*
X114673Y67267D01*
X114661Y67174D01*
X114645Y67082D01*
X114625Y66991D01*
X114601Y66901D01*
X114574Y66811D01*
X114542Y66724D01*
X114507Y66637D01*
X114469Y66552D01*
X114426Y66469D01*
X114380Y66387D01*
X114331Y66308D01*
X114279Y66231D01*
X114223Y66156D01*
X114164Y66084D01*
X114102Y66014D01*
X114037Y65947D01*
X113969Y65882D01*
X113899Y65821D01*
X113826Y65763D01*
X113750Y65708D01*
X113672Y65656D01*
X113593Y65608D01*
X113511Y65563D01*
X113427Y65521D01*
X113342Y65484D01*
X113255Y65449D01*
X113166Y65419D01*
X113077Y65393D01*
X112986Y65370D01*
X112895Y65351D01*
X112803Y65336D01*
X112710Y65325D01*
X112617Y65318D01*
X112523Y65315D01*
X112430Y65316D01*
X112337Y65321D01*
X112244Y65330D01*
X112151Y65343D01*
X112059Y65360D01*
X111968Y65381D01*
X111878Y65405D01*
X111789Y65434D01*
X111702Y65466D01*
X111616Y65502D01*
X111531Y65542D01*
X111448Y65585D01*
X111367Y65632D01*
X111289Y65682D01*
X111212Y65735D01*
X111138Y65792D01*
X111066Y65851D01*
X110997Y65914D01*
X110930Y65980D01*
X110867Y66048D01*
X110806Y66119D01*
X110749Y66193D01*
X110695Y66269D01*
X110644Y66347D01*
X110596Y66428D01*
X110552Y66510D01*
X110512Y66594D01*
X110475Y66680D01*
X110442Y66767D01*
X110412Y66856D01*
X110386Y66946D01*
X110365Y67037D01*
X110347Y67128D01*
X110333Y67221D01*
X110323Y67313D01*
X110317Y67407D01*
X110315Y67500D01*
D12*
X112237Y84747D02*
X112237Y88560D01*
X112237Y84747D02*
X114779Y84747D01*
X115979Y87289D02*
X117250Y88560D01*
X117250Y84747D01*
X115979Y84747D02*
X118521Y84747D01*
D10*
X223730Y45000D02*
X223732Y45071D01*
X223738Y45142D01*
X223748Y45213D01*
X223762Y45283D01*
X223780Y45352D01*
X223801Y45419D01*
X223827Y45486D01*
X223856Y45551D01*
X223888Y45614D01*
X223925Y45676D01*
X223964Y45735D01*
X224007Y45792D01*
X224053Y45846D01*
X224102Y45898D01*
X224154Y45947D01*
X224208Y45993D01*
X224265Y46036D01*
X224324Y46075D01*
X224386Y46112D01*
X224449Y46144D01*
X224514Y46173D01*
X224581Y46199D01*
X224648Y46220D01*
X224717Y46238D01*
X224787Y46252D01*
X224858Y46262D01*
X224929Y46268D01*
X225000Y46270D01*
X225071Y46268D01*
X225142Y46262D01*
X225213Y46252D01*
X225283Y46238D01*
X225352Y46220D01*
X225419Y46199D01*
X225486Y46173D01*
X225551Y46144D01*
X225614Y46112D01*
X225676Y46075D01*
X225735Y46036D01*
X225792Y45993D01*
X225846Y45947D01*
X225898Y45898D01*
X225947Y45846D01*
X225993Y45792D01*
X226036Y45735D01*
X226075Y45676D01*
X226112Y45614D01*
X226144Y45551D01*
X226173Y45486D01*
X226199Y45419D01*
X226220Y45352D01*
X226238Y45283D01*
X226252Y45213D01*
X226262Y45142D01*
X226268Y45071D01*
X226270Y45000D01*
X226268Y44929D01*
X226262Y44858D01*
X226252Y44787D01*
X226238Y44717D01*
X226220Y44648D01*
X226199Y44581D01*
X226173Y44514D01*
X226144Y44449D01*
X226112Y44386D01*
X226075Y44324D01*
X226036Y44265D01*
X225993Y44208D01*
X225947Y44154D01*
X225898Y44102D01*
X225846Y44053D01*
X225792Y44007D01*
X225735Y43964D01*
X225676Y43925D01*
X225614Y43888D01*
X225551Y43856D01*
X225486Y43827D01*
X225419Y43801D01*
X225352Y43780D01*
X225283Y43762D01*
X225213Y43748D01*
X225142Y43738D01*
X225071Y43732D01*
X225000Y43730D01*
X224929Y43732D01*
X224858Y43738D01*
X224787Y43748D01*
X224717Y43762D01*
X224648Y43780D01*
X224581Y43801D01*
X224514Y43827D01*
X224449Y43856D01*
X224386Y43888D01*
X224324Y43925D01*
X224265Y43964D01*
X224208Y44007D01*
X224154Y44053D01*
X224102Y44102D01*
X224053Y44154D01*
X224007Y44208D01*
X223964Y44265D01*
X223925Y44324D01*
X223888Y44386D01*
X223856Y44449D01*
X223827Y44514D01*
X223801Y44581D01*
X223780Y44648D01*
X223762Y44717D01*
X223748Y44787D01*
X223738Y44858D01*
X223732Y44929D01*
X223730Y45000D01*
X224746Y45000D02*
X224748Y45031D01*
X224754Y45062D01*
X224763Y45092D01*
X224776Y45120D01*
X224793Y45147D01*
X224812Y45171D01*
X224835Y45193D01*
X224860Y45212D01*
X224887Y45227D01*
X224916Y45240D01*
X224946Y45248D01*
X224977Y45253D01*
X225008Y45254D01*
X225039Y45251D01*
X225070Y45244D01*
X225099Y45234D01*
X225127Y45220D01*
X225153Y45203D01*
X225177Y45182D01*
X225198Y45159D01*
X225216Y45134D01*
X225231Y45106D01*
X225242Y45077D01*
X225250Y45047D01*
X225254Y45016D01*
X225254Y44984D01*
X225250Y44953D01*
X225242Y44923D01*
X225231Y44894D01*
X225216Y44866D01*
X225198Y44841D01*
X225177Y44818D01*
X225153Y44797D01*
X225127Y44780D01*
X225099Y44766D01*
X225070Y44756D01*
X225039Y44749D01*
X225008Y44746D01*
X224977Y44747D01*
X224946Y44752D01*
X224916Y44760D01*
X224887Y44773D01*
X224860Y44788D01*
X224835Y44807D01*
X224812Y44829D01*
X224793Y44853D01*
X224776Y44880D01*
X224763Y44908D01*
X224754Y44938D01*
X224748Y44969D01*
X224746Y45000D01*
X222815Y45000D02*
X222817Y45093D01*
X222823Y45187D01*
X222833Y45279D01*
X222847Y45372D01*
X222865Y45463D01*
X222886Y45554D01*
X222912Y45644D01*
X222942Y45733D01*
X222975Y45820D01*
X223012Y45906D01*
X223052Y45990D01*
X223096Y46072D01*
X223144Y46153D01*
X223195Y46231D01*
X223249Y46307D01*
X223306Y46381D01*
X223367Y46452D01*
X223430Y46520D01*
X223497Y46586D01*
X223566Y46649D01*
X223638Y46708D01*
X223712Y46765D01*
X223789Y46818D01*
X223867Y46868D01*
X223948Y46915D01*
X224031Y46958D01*
X224116Y46998D01*
X224202Y47034D01*
X224289Y47066D01*
X224378Y47095D01*
X224468Y47119D01*
X224559Y47140D01*
X224651Y47157D01*
X224744Y47170D01*
X224837Y47179D01*
X224930Y47184D01*
X225023Y47185D01*
X225117Y47182D01*
X225210Y47175D01*
X225303Y47164D01*
X225395Y47149D01*
X225486Y47130D01*
X225577Y47107D01*
X225666Y47081D01*
X225755Y47051D01*
X225842Y47016D01*
X225927Y46979D01*
X226011Y46937D01*
X226092Y46892D01*
X226172Y46844D01*
X226250Y46792D01*
X226326Y46737D01*
X226399Y46679D01*
X226469Y46618D01*
X226537Y46553D01*
X226602Y46486D01*
X226664Y46416D01*
X226723Y46344D01*
X226779Y46269D01*
X226831Y46192D01*
X226880Y46113D01*
X226926Y46031D01*
X226969Y45948D01*
X227007Y45863D01*
X227042Y45776D01*
X227074Y45689D01*
X227101Y45599D01*
X227125Y45509D01*
X227145Y45418D01*
X227161Y45326D01*
X227173Y45233D01*
X227181Y45140D01*
X227185Y45047D01*
X227185Y44953D01*
X227181Y44860D01*
X227173Y44767D01*
X227161Y44674D01*
X227145Y44582D01*
X227125Y44491D01*
X227101Y44401D01*
X227074Y44311D01*
X227042Y44224D01*
X227007Y44137D01*
X226969Y44052D01*
X226926Y43969D01*
X226880Y43887D01*
X226831Y43808D01*
X226779Y43731D01*
X226723Y43656D01*
X226664Y43584D01*
X226602Y43514D01*
X226537Y43447D01*
X226469Y43382D01*
X226399Y43321D01*
X226326Y43263D01*
X226250Y43208D01*
X226172Y43156D01*
X226093Y43108D01*
X226011Y43063D01*
X225927Y43021D01*
X225842Y42984D01*
X225755Y42949D01*
X225666Y42919D01*
X225577Y42893D01*
X225486Y42870D01*
X225395Y42851D01*
X225303Y42836D01*
X225210Y42825D01*
X225117Y42818D01*
X225023Y42815D01*
X224930Y42816D01*
X224837Y42821D01*
X224744Y42830D01*
X224651Y42843D01*
X224559Y42860D01*
X224468Y42881D01*
X224378Y42905D01*
X224289Y42934D01*
X224202Y42966D01*
X224116Y43002D01*
X224031Y43042D01*
X223948Y43085D01*
X223867Y43132D01*
X223789Y43182D01*
X223712Y43235D01*
X223638Y43292D01*
X223566Y43351D01*
X223497Y43414D01*
X223430Y43480D01*
X223367Y43548D01*
X223306Y43619D01*
X223249Y43693D01*
X223195Y43769D01*
X223144Y43847D01*
X223096Y43928D01*
X223052Y44010D01*
X223012Y44094D01*
X222975Y44180D01*
X222942Y44267D01*
X222912Y44356D01*
X222886Y44446D01*
X222865Y44537D01*
X222847Y44628D01*
X222833Y44721D01*
X222823Y44813D01*
X222817Y44907D01*
X222815Y45000D01*
D12*
X210497Y55595D02*
X207801Y58292D01*
X210497Y55595D02*
X212295Y57393D01*
X213143Y58241D02*
X214941Y60039D01*
X213143Y58241D02*
X213143Y61836D01*
X212694Y62286D01*
X211795Y62286D01*
X210896Y61387D01*
X210896Y60488D01*
D11*
X219038Y149909D02*
X220606Y151477D01*
X219038Y149909D02*
X219038Y146774D01*
X220606Y145206D01*
X226876Y145206D01*
X228444Y146774D01*
X228444Y149909D01*
X226876Y151477D01*
X228444Y154561D02*
X228444Y160832D01*
X228444Y154561D02*
X222173Y160832D01*
X220606Y160832D01*
X219038Y159264D01*
X219038Y156129D01*
X220606Y154561D01*
D10*
X201055Y134500D02*
X201057Y134571D01*
X201063Y134642D01*
X201073Y134713D01*
X201087Y134783D01*
X201105Y134852D01*
X201126Y134919D01*
X201152Y134986D01*
X201181Y135051D01*
X201213Y135114D01*
X201250Y135176D01*
X201289Y135235D01*
X201332Y135292D01*
X201378Y135346D01*
X201427Y135398D01*
X201479Y135447D01*
X201533Y135493D01*
X201590Y135536D01*
X201649Y135575D01*
X201711Y135612D01*
X201774Y135644D01*
X201839Y135673D01*
X201906Y135699D01*
X201973Y135720D01*
X202042Y135738D01*
X202112Y135752D01*
X202183Y135762D01*
X202254Y135768D01*
X202325Y135770D01*
X202396Y135768D01*
X202467Y135762D01*
X202538Y135752D01*
X202608Y135738D01*
X202677Y135720D01*
X202744Y135699D01*
X202811Y135673D01*
X202876Y135644D01*
X202939Y135612D01*
X203001Y135575D01*
X203060Y135536D01*
X203117Y135493D01*
X203171Y135447D01*
X203223Y135398D01*
X203272Y135346D01*
X203318Y135292D01*
X203361Y135235D01*
X203400Y135176D01*
X203437Y135114D01*
X203469Y135051D01*
X203498Y134986D01*
X203524Y134919D01*
X203545Y134852D01*
X203563Y134783D01*
X203577Y134713D01*
X203587Y134642D01*
X203593Y134571D01*
X203595Y134500D01*
X203593Y134429D01*
X203587Y134358D01*
X203577Y134287D01*
X203563Y134217D01*
X203545Y134148D01*
X203524Y134081D01*
X203498Y134014D01*
X203469Y133949D01*
X203437Y133886D01*
X203400Y133824D01*
X203361Y133765D01*
X203318Y133708D01*
X203272Y133654D01*
X203223Y133602D01*
X203171Y133553D01*
X203117Y133507D01*
X203060Y133464D01*
X203001Y133425D01*
X202939Y133388D01*
X202876Y133356D01*
X202811Y133327D01*
X202744Y133301D01*
X202677Y133280D01*
X202608Y133262D01*
X202538Y133248D01*
X202467Y133238D01*
X202396Y133232D01*
X202325Y133230D01*
X202254Y133232D01*
X202183Y133238D01*
X202112Y133248D01*
X202042Y133262D01*
X201973Y133280D01*
X201906Y133301D01*
X201839Y133327D01*
X201774Y133356D01*
X201711Y133388D01*
X201649Y133425D01*
X201590Y133464D01*
X201533Y133507D01*
X201479Y133553D01*
X201427Y133602D01*
X201378Y133654D01*
X201332Y133708D01*
X201289Y133765D01*
X201250Y133824D01*
X201213Y133886D01*
X201181Y133949D01*
X201152Y134014D01*
X201126Y134081D01*
X201105Y134148D01*
X201087Y134217D01*
X201073Y134287D01*
X201063Y134358D01*
X201057Y134429D01*
X201055Y134500D01*
X202071Y134500D02*
X202073Y134531D01*
X202079Y134562D01*
X202088Y134592D01*
X202101Y134620D01*
X202118Y134647D01*
X202137Y134671D01*
X202160Y134693D01*
X202185Y134712D01*
X202212Y134727D01*
X202241Y134740D01*
X202271Y134748D01*
X202302Y134753D01*
X202333Y134754D01*
X202364Y134751D01*
X202395Y134744D01*
X202424Y134734D01*
X202452Y134720D01*
X202478Y134703D01*
X202502Y134682D01*
X202523Y134659D01*
X202541Y134634D01*
X202556Y134606D01*
X202567Y134577D01*
X202575Y134547D01*
X202579Y134516D01*
X202579Y134484D01*
X202575Y134453D01*
X202567Y134423D01*
X202556Y134394D01*
X202541Y134366D01*
X202523Y134341D01*
X202502Y134318D01*
X202478Y134297D01*
X202452Y134280D01*
X202424Y134266D01*
X202395Y134256D01*
X202364Y134249D01*
X202333Y134246D01*
X202302Y134247D01*
X202271Y134252D01*
X202241Y134260D01*
X202212Y134273D01*
X202185Y134288D01*
X202160Y134307D01*
X202137Y134329D01*
X202118Y134353D01*
X202101Y134380D01*
X202088Y134408D01*
X202079Y134438D01*
X202073Y134469D01*
X202071Y134500D01*
X200140Y134500D02*
X200142Y134593D01*
X200148Y134687D01*
X200158Y134779D01*
X200172Y134872D01*
X200190Y134963D01*
X200211Y135054D01*
X200237Y135144D01*
X200267Y135233D01*
X200300Y135320D01*
X200337Y135406D01*
X200377Y135490D01*
X200421Y135572D01*
X200469Y135653D01*
X200520Y135731D01*
X200574Y135807D01*
X200631Y135881D01*
X200692Y135952D01*
X200755Y136020D01*
X200822Y136086D01*
X200891Y136149D01*
X200963Y136208D01*
X201037Y136265D01*
X201114Y136318D01*
X201192Y136368D01*
X201273Y136415D01*
X201356Y136458D01*
X201441Y136498D01*
X201527Y136534D01*
X201614Y136566D01*
X201703Y136595D01*
X201793Y136619D01*
X201884Y136640D01*
X201976Y136657D01*
X202069Y136670D01*
X202162Y136679D01*
X202255Y136684D01*
X202348Y136685D01*
X202442Y136682D01*
X202535Y136675D01*
X202628Y136664D01*
X202720Y136649D01*
X202811Y136630D01*
X202902Y136607D01*
X202991Y136581D01*
X203080Y136551D01*
X203167Y136516D01*
X203252Y136479D01*
X203336Y136437D01*
X203417Y136392D01*
X203497Y136344D01*
X203575Y136292D01*
X203651Y136237D01*
X203724Y136179D01*
X203794Y136118D01*
X203862Y136053D01*
X203927Y135986D01*
X203989Y135916D01*
X204048Y135844D01*
X204104Y135769D01*
X204156Y135692D01*
X204205Y135613D01*
X204251Y135531D01*
X204294Y135448D01*
X204332Y135363D01*
X204367Y135276D01*
X204399Y135189D01*
X204426Y135099D01*
X204450Y135009D01*
X204470Y134918D01*
X204486Y134826D01*
X204498Y134733D01*
X204506Y134640D01*
X204510Y134547D01*
X204510Y134453D01*
X204506Y134360D01*
X204498Y134267D01*
X204486Y134174D01*
X204470Y134082D01*
X204450Y133991D01*
X204426Y133901D01*
X204399Y133811D01*
X204367Y133724D01*
X204332Y133637D01*
X204294Y133552D01*
X204251Y133469D01*
X204205Y133387D01*
X204156Y133308D01*
X204104Y133231D01*
X204048Y133156D01*
X203989Y133084D01*
X203927Y133014D01*
X203862Y132947D01*
X203794Y132882D01*
X203724Y132821D01*
X203651Y132763D01*
X203575Y132708D01*
X203497Y132656D01*
X203418Y132608D01*
X203336Y132563D01*
X203252Y132521D01*
X203167Y132484D01*
X203080Y132449D01*
X202991Y132419D01*
X202902Y132393D01*
X202811Y132370D01*
X202720Y132351D01*
X202628Y132336D01*
X202535Y132325D01*
X202442Y132318D01*
X202348Y132315D01*
X202255Y132316D01*
X202162Y132321D01*
X202069Y132330D01*
X201976Y132343D01*
X201884Y132360D01*
X201793Y132381D01*
X201703Y132405D01*
X201614Y132434D01*
X201527Y132466D01*
X201441Y132502D01*
X201356Y132542D01*
X201273Y132585D01*
X201192Y132632D01*
X201114Y132682D01*
X201037Y132735D01*
X200963Y132792D01*
X200891Y132851D01*
X200822Y132914D01*
X200755Y132980D01*
X200692Y133048D01*
X200631Y133119D01*
X200574Y133193D01*
X200520Y133269D01*
X200469Y133347D01*
X200421Y133428D01*
X200377Y133510D01*
X200337Y133594D01*
X200300Y133680D01*
X200267Y133767D01*
X200237Y133856D01*
X200211Y133946D01*
X200190Y134037D01*
X200172Y134128D01*
X200158Y134221D01*
X200148Y134313D01*
X200142Y134407D01*
X200140Y134500D01*
D12*
X184753Y135912D02*
X180940Y135912D01*
X184753Y135912D02*
X184753Y138454D01*
X181575Y139654D02*
X180940Y140290D01*
X180940Y141561D01*
X181575Y142196D01*
X182211Y142196D01*
X182846Y141561D01*
X182846Y140925D01*
X182846Y141561D02*
X183482Y142196D01*
X184117Y142196D01*
X184753Y141561D01*
X184753Y140290D01*
X184117Y139654D01*
D10*
X201055Y114300D02*
X201057Y114371D01*
X201063Y114442D01*
X201073Y114513D01*
X201087Y114583D01*
X201105Y114652D01*
X201126Y114719D01*
X201152Y114786D01*
X201181Y114851D01*
X201213Y114914D01*
X201250Y114976D01*
X201289Y115035D01*
X201332Y115092D01*
X201378Y115146D01*
X201427Y115198D01*
X201479Y115247D01*
X201533Y115293D01*
X201590Y115336D01*
X201649Y115375D01*
X201711Y115412D01*
X201774Y115444D01*
X201839Y115473D01*
X201906Y115499D01*
X201973Y115520D01*
X202042Y115538D01*
X202112Y115552D01*
X202183Y115562D01*
X202254Y115568D01*
X202325Y115570D01*
X202396Y115568D01*
X202467Y115562D01*
X202538Y115552D01*
X202608Y115538D01*
X202677Y115520D01*
X202744Y115499D01*
X202811Y115473D01*
X202876Y115444D01*
X202939Y115412D01*
X203001Y115375D01*
X203060Y115336D01*
X203117Y115293D01*
X203171Y115247D01*
X203223Y115198D01*
X203272Y115146D01*
X203318Y115092D01*
X203361Y115035D01*
X203400Y114976D01*
X203437Y114914D01*
X203469Y114851D01*
X203498Y114786D01*
X203524Y114719D01*
X203545Y114652D01*
X203563Y114583D01*
X203577Y114513D01*
X203587Y114442D01*
X203593Y114371D01*
X203595Y114300D01*
X203593Y114229D01*
X203587Y114158D01*
X203577Y114087D01*
X203563Y114017D01*
X203545Y113948D01*
X203524Y113881D01*
X203498Y113814D01*
X203469Y113749D01*
X203437Y113686D01*
X203400Y113624D01*
X203361Y113565D01*
X203318Y113508D01*
X203272Y113454D01*
X203223Y113402D01*
X203171Y113353D01*
X203117Y113307D01*
X203060Y113264D01*
X203001Y113225D01*
X202939Y113188D01*
X202876Y113156D01*
X202811Y113127D01*
X202744Y113101D01*
X202677Y113080D01*
X202608Y113062D01*
X202538Y113048D01*
X202467Y113038D01*
X202396Y113032D01*
X202325Y113030D01*
X202254Y113032D01*
X202183Y113038D01*
X202112Y113048D01*
X202042Y113062D01*
X201973Y113080D01*
X201906Y113101D01*
X201839Y113127D01*
X201774Y113156D01*
X201711Y113188D01*
X201649Y113225D01*
X201590Y113264D01*
X201533Y113307D01*
X201479Y113353D01*
X201427Y113402D01*
X201378Y113454D01*
X201332Y113508D01*
X201289Y113565D01*
X201250Y113624D01*
X201213Y113686D01*
X201181Y113749D01*
X201152Y113814D01*
X201126Y113881D01*
X201105Y113948D01*
X201087Y114017D01*
X201073Y114087D01*
X201063Y114158D01*
X201057Y114229D01*
X201055Y114300D01*
X202071Y114300D02*
X202073Y114331D01*
X202079Y114362D01*
X202088Y114392D01*
X202101Y114420D01*
X202118Y114447D01*
X202137Y114471D01*
X202160Y114493D01*
X202185Y114512D01*
X202212Y114527D01*
X202241Y114540D01*
X202271Y114548D01*
X202302Y114553D01*
X202333Y114554D01*
X202364Y114551D01*
X202395Y114544D01*
X202424Y114534D01*
X202452Y114520D01*
X202478Y114503D01*
X202502Y114482D01*
X202523Y114459D01*
X202541Y114434D01*
X202556Y114406D01*
X202567Y114377D01*
X202575Y114347D01*
X202579Y114316D01*
X202579Y114284D01*
X202575Y114253D01*
X202567Y114223D01*
X202556Y114194D01*
X202541Y114166D01*
X202523Y114141D01*
X202502Y114118D01*
X202478Y114097D01*
X202452Y114080D01*
X202424Y114066D01*
X202395Y114056D01*
X202364Y114049D01*
X202333Y114046D01*
X202302Y114047D01*
X202271Y114052D01*
X202241Y114060D01*
X202212Y114073D01*
X202185Y114088D01*
X202160Y114107D01*
X202137Y114129D01*
X202118Y114153D01*
X202101Y114180D01*
X202088Y114208D01*
X202079Y114238D01*
X202073Y114269D01*
X202071Y114300D01*
X200140Y114300D02*
X200142Y114393D01*
X200148Y114487D01*
X200158Y114579D01*
X200172Y114672D01*
X200190Y114763D01*
X200211Y114854D01*
X200237Y114944D01*
X200267Y115033D01*
X200300Y115120D01*
X200337Y115206D01*
X200377Y115290D01*
X200421Y115372D01*
X200469Y115453D01*
X200520Y115531D01*
X200574Y115607D01*
X200631Y115681D01*
X200692Y115752D01*
X200755Y115820D01*
X200822Y115886D01*
X200891Y115949D01*
X200963Y116008D01*
X201037Y116065D01*
X201114Y116118D01*
X201192Y116168D01*
X201273Y116215D01*
X201356Y116258D01*
X201441Y116298D01*
X201527Y116334D01*
X201614Y116366D01*
X201703Y116395D01*
X201793Y116419D01*
X201884Y116440D01*
X201976Y116457D01*
X202069Y116470D01*
X202162Y116479D01*
X202255Y116484D01*
X202348Y116485D01*
X202442Y116482D01*
X202535Y116475D01*
X202628Y116464D01*
X202720Y116449D01*
X202811Y116430D01*
X202902Y116407D01*
X202991Y116381D01*
X203080Y116351D01*
X203167Y116316D01*
X203252Y116279D01*
X203336Y116237D01*
X203417Y116192D01*
X203497Y116144D01*
X203575Y116092D01*
X203651Y116037D01*
X203724Y115979D01*
X203794Y115918D01*
X203862Y115853D01*
X203927Y115786D01*
X203989Y115716D01*
X204048Y115644D01*
X204104Y115569D01*
X204156Y115492D01*
X204205Y115413D01*
X204251Y115331D01*
X204294Y115248D01*
X204332Y115163D01*
X204367Y115076D01*
X204399Y114989D01*
X204426Y114899D01*
X204450Y114809D01*
X204470Y114718D01*
X204486Y114626D01*
X204498Y114533D01*
X204506Y114440D01*
X204510Y114347D01*
X204510Y114253D01*
X204506Y114160D01*
X204498Y114067D01*
X204486Y113974D01*
X204470Y113882D01*
X204450Y113791D01*
X204426Y113701D01*
X204399Y113611D01*
X204367Y113524D01*
X204332Y113437D01*
X204294Y113352D01*
X204251Y113269D01*
X204205Y113187D01*
X204156Y113108D01*
X204104Y113031D01*
X204048Y112956D01*
X203989Y112884D01*
X203927Y112814D01*
X203862Y112747D01*
X203794Y112682D01*
X203724Y112621D01*
X203651Y112563D01*
X203575Y112508D01*
X203497Y112456D01*
X203418Y112408D01*
X203336Y112363D01*
X203252Y112321D01*
X203167Y112284D01*
X203080Y112249D01*
X202991Y112219D01*
X202902Y112193D01*
X202811Y112170D01*
X202720Y112151D01*
X202628Y112136D01*
X202535Y112125D01*
X202442Y112118D01*
X202348Y112115D01*
X202255Y112116D01*
X202162Y112121D01*
X202069Y112130D01*
X201976Y112143D01*
X201884Y112160D01*
X201793Y112181D01*
X201703Y112205D01*
X201614Y112234D01*
X201527Y112266D01*
X201441Y112302D01*
X201356Y112342D01*
X201273Y112385D01*
X201192Y112432D01*
X201114Y112482D01*
X201037Y112535D01*
X200963Y112592D01*
X200891Y112651D01*
X200822Y112714D01*
X200755Y112780D01*
X200692Y112848D01*
X200631Y112919D01*
X200574Y112993D01*
X200520Y113069D01*
X200469Y113147D01*
X200421Y113228D01*
X200377Y113310D01*
X200337Y113394D01*
X200300Y113480D01*
X200267Y113567D01*
X200237Y113656D01*
X200211Y113746D01*
X200190Y113837D01*
X200172Y113928D01*
X200158Y114021D01*
X200148Y114113D01*
X200142Y114207D01*
X200140Y114300D01*
D12*
X185257Y105858D02*
X181444Y105858D01*
X185257Y105858D02*
X185257Y108400D01*
X185257Y111507D02*
X181444Y111507D01*
X183350Y109600D01*
X183350Y112142D01*
D11*
X153941Y157547D02*
X152374Y159115D01*
X149238Y159115D01*
X147671Y157547D01*
X147671Y151276D01*
X149238Y149709D01*
X152374Y149709D01*
X153941Y151276D01*
X157026Y157547D02*
X158593Y159115D01*
X161729Y159115D01*
X163297Y157547D01*
X163297Y155979D01*
X161729Y154412D01*
X160161Y154412D01*
X161729Y154412D02*
X163297Y152844D01*
X163297Y151276D01*
X161729Y149709D01*
X158593Y149709D01*
X157026Y151276D01*
X219749Y34527D02*
X221316Y32959D01*
X219749Y34527D02*
X216613Y34527D01*
X215046Y32959D01*
X215046Y26689D01*
X216613Y25121D01*
X219749Y25121D01*
X221316Y26689D01*
X229104Y25121D02*
X229104Y34527D01*
X224401Y29824D01*
X230672Y29824D01*
M02*
