G04 EAGLE Gerber RS-274X export*
G75*
%MOMM*%
%FSLAX34Y34*%
%LPD*%
%INSoldermask Bottom*%
%IPNEG*%
%AMOC8*
5,1,8,0,0,1.08239X$1,22.5*%
G01*
%ADD10C,0.851600*%
%ADD11C,4.851600*%

G36*
X204290Y-623D02*
X204290Y-623D01*
X204356Y-621D01*
X204399Y-603D01*
X204446Y-595D01*
X204503Y-561D01*
X204563Y-536D01*
X204598Y-505D01*
X204639Y-480D01*
X204681Y-429D01*
X204729Y-385D01*
X204751Y-343D01*
X204780Y-306D01*
X204801Y-244D01*
X204832Y-185D01*
X204840Y-131D01*
X204852Y-94D01*
X204851Y-54D01*
X204859Y0D01*
X204859Y97500D01*
X204848Y97565D01*
X204846Y97631D01*
X204828Y97674D01*
X204820Y97721D01*
X204786Y97778D01*
X204761Y97838D01*
X204730Y97873D01*
X204705Y97914D01*
X204654Y97956D01*
X204610Y98004D01*
X204568Y98026D01*
X204531Y98055D01*
X204469Y98076D01*
X204410Y98107D01*
X204356Y98115D01*
X204319Y98127D01*
X204279Y98126D01*
X204225Y98134D01*
X189225Y98134D01*
X189160Y98123D01*
X189094Y98121D01*
X189051Y98103D01*
X189004Y98095D01*
X188947Y98061D01*
X188887Y98036D01*
X188852Y98005D01*
X188811Y97980D01*
X188770Y97929D01*
X188721Y97885D01*
X188699Y97843D01*
X188670Y97806D01*
X188649Y97744D01*
X188618Y97685D01*
X188610Y97631D01*
X188598Y97594D01*
X188599Y97554D01*
X188591Y97500D01*
X188591Y0D01*
X188602Y-65D01*
X188604Y-131D01*
X188622Y-174D01*
X188630Y-221D01*
X188664Y-278D01*
X188689Y-338D01*
X188720Y-373D01*
X188745Y-414D01*
X188796Y-456D01*
X188840Y-504D01*
X188882Y-526D01*
X188919Y-555D01*
X188981Y-576D01*
X189040Y-607D01*
X189094Y-615D01*
X189131Y-627D01*
X189171Y-626D01*
X189225Y-634D01*
X204225Y-634D01*
X204290Y-623D01*
G37*
G36*
X139290Y-623D02*
X139290Y-623D01*
X139356Y-621D01*
X139399Y-603D01*
X139446Y-595D01*
X139503Y-561D01*
X139563Y-536D01*
X139598Y-505D01*
X139639Y-480D01*
X139681Y-429D01*
X139729Y-385D01*
X139751Y-343D01*
X139780Y-306D01*
X139801Y-244D01*
X139832Y-185D01*
X139840Y-131D01*
X139852Y-94D01*
X139851Y-54D01*
X139859Y0D01*
X139859Y97500D01*
X139848Y97565D01*
X139846Y97631D01*
X139828Y97674D01*
X139820Y97721D01*
X139786Y97778D01*
X139761Y97838D01*
X139730Y97873D01*
X139705Y97914D01*
X139654Y97956D01*
X139610Y98004D01*
X139568Y98026D01*
X139531Y98055D01*
X139469Y98076D01*
X139410Y98107D01*
X139356Y98115D01*
X139319Y98127D01*
X139279Y98126D01*
X139225Y98134D01*
X124225Y98134D01*
X124160Y98123D01*
X124094Y98121D01*
X124051Y98103D01*
X124004Y98095D01*
X123947Y98061D01*
X123887Y98036D01*
X123852Y98005D01*
X123811Y97980D01*
X123770Y97929D01*
X123721Y97885D01*
X123699Y97843D01*
X123670Y97806D01*
X123649Y97744D01*
X123618Y97685D01*
X123610Y97631D01*
X123598Y97594D01*
X123599Y97554D01*
X123591Y97500D01*
X123591Y0D01*
X123602Y-65D01*
X123604Y-131D01*
X123622Y-174D01*
X123630Y-221D01*
X123664Y-278D01*
X123689Y-338D01*
X123720Y-373D01*
X123745Y-414D01*
X123796Y-456D01*
X123840Y-504D01*
X123882Y-526D01*
X123919Y-555D01*
X123981Y-576D01*
X124040Y-607D01*
X124094Y-615D01*
X124131Y-627D01*
X124171Y-626D01*
X124225Y-634D01*
X139225Y-634D01*
X139290Y-623D01*
G37*
D10*
X131725Y27500D03*
X131725Y47500D03*
X131725Y67500D03*
X131725Y87500D03*
X196725Y27500D03*
X196725Y47500D03*
X196725Y67500D03*
X196725Y87500D03*
D11*
X25000Y25000D03*
X290000Y152500D03*
M02*
